<svg width="128" height="128" viewBox="0 0 128 128" fill="none" xmlns="http://www.w3.org/2000/svg" aria-hidden="true">
  <path d="M0 96H39.0156C50.3731 96 56.0522 96.0001 59.918 98.3887C63.1681 100.397 65.592 103.502 66.752 107.143C68.1315 111.472 66.7546 116.982 64 128H0V96ZM128 128H85C87.9343 116.263 89.4019 110.394 92.748 106.075C95.4019 102.65 98.8696 99.9431 102.836 98.1992C107.837 96.0004 113.886 96 125.984 96H128V128ZM96 0L87.1006 35.6074C82.3726 54.5258 80.0091 63.9859 72.9561 69.4932C65.903 75.0003 56.1524 75 36.6523 75H0V0H96ZM128 75C119.611 75 115.416 74.9996 112.364 73.6729C107.392 71.5111 103.852 66.9781 102.961 61.6299C102.414 58.3476 103.431 54.2782 105.466 46.1396L117 0H128V75Z" fill="#E75328"/>
</svg>
