<svg width="12" height="12" viewBox="0 0 12 12" fill="none" xmlns="http://www.w3.org/2000/svg">
<path d="M5.2822 0.0499011C5.44263 -0.0277892 5.63536 -0.0147595 5.78513 0.0889636L9.78513 2.85947C9.91974 2.9529 9.99997 3.10673 9.99997 3.2706V7.74131C9.99997 7.90564 9.9194 8.06008 9.78415 8.15342L5.78415 10.9112C5.61326 11.0291 5.38668 11.0291 5.21579 10.9112L1.21579 8.15342C1.08054 8.06008 0.999969 7.90564 0.999969 7.74131V3.2706C0.999969 3.10672 1.0802 2.9529 1.21481 2.85947L5.21579 0.0889636L5.2822 0.0499011ZM1.99997 3.53232V7.47861L5.49997 9.89267L8.99997 7.47861V3.53232L5.49997 1.10752L1.99997 3.53232Z" fill="#F3F3F4"/>
<path d="M7 5.5C7 4.67157 6.32843 4 5.5 4C4.67157 4 4 4.67157 4 5.5C4 6.32843 4.67157 7 5.5 7V8C4.11929 8 3 6.88071 3 5.5C3 4.11929 4.11929 3 5.5 3C6.88071 3 8 4.11929 8 5.5C8 6.88071 6.88071 8 5.5 8V7C6.32843 7 7 6.32843 7 5.5Z" fill="#F3F3F4"/>
</svg>
