<svg preserveAspectRatio="none" width="100%" height="100%" overflow="visible" style="display: block;" viewBox="0 0 512 512" fill="none" xmlns="http://www.w3.org/2000/svg">
<path id="Image" d="M0 384H156.062C201.492 384 224.209 384 239.672 393.555C252.673 401.588 262.368 414.009 267.008 428.57C272.526 445.889 267.018 467.926 256 512H0V384ZM512 512H340C351.737 465.051 357.608 441.575 370.992 424.301C381.607 410.601 395.478 399.772 411.344 392.797C431.348 384.002 455.544 384 503.938 384H512V512ZM384 0L348.402 142.43C329.49 218.103 320.036 255.944 291.824 277.973C263.612 300.001 224.61 300 146.609 300H0V0H384ZM512 300C478.442 300 461.664 299.998 449.457 294.691C429.567 286.044 415.409 267.912 411.844 246.52C409.656 233.391 413.725 217.113 421.863 184.559L468 0H512V300Z" fill="var(--fill-0, #E75328)"/>
</svg>
