<svg width="128" height="128" viewBox="0 0 128 128" fill="none" xmlns="http://www.w3.org/2000/svg">
<path d="M128 117.943C128 123.497 123.497 128 117.943 128H109.67C107.718 128 106.244 126.236 106.569 124.312C108.18 114.791 109.996 101.939 110.773 88.7529C111.545 75.6617 111.323 61.8052 108.631 50.4639C106.004 39.3957 100.466 28.6433 88.9766 25.5645C82.9755 23.9565 77.24 25.358 72.207 28.2803C67.2753 31.1439 62.7552 35.5968 58.6621 40.7305C50.4681 51.0076 43.0012 65.2807 36.7383 79.4092C30.4375 93.6233 25.1919 108.071 21.5283 118.934C21.3441 119.48 21.1639 120.017 20.9876 120.545C19.5097 124.974 15.3883 128 10.7192 128C4.79913 128 0 123.201 0 117.281V30C0 15.8579 0 8.7868 4.3934 4.3934C8.7868 0 15.8579 0 30 0H98C112.142 0 119.213 0 123.607 4.3934C128 8.7868 128 15.8579 128 30V117.943ZM78.2324 38.6582C81.2666 36.8964 83.7114 36.578 85.8701 37.1562C90.6996 38.4504 94.6034 43.3242 96.9561 53.2354C99.2439 62.8738 99.5423 75.3516 98.7939 88.0469C98.0512 100.647 96.3064 113.037 94.7373 122.31C94.1785 125.612 91.2973 128 87.9482 128H36.6775C33.9587 128 32.0296 125.345 32.8984 122.769C36.4948 112.105 41.6099 98.0315 47.709 84.2725C53.846 70.4278 60.819 57.2739 68.0449 48.2109C71.6617 43.6748 75.0968 40.4789 78.2324 38.6582Z" fill="#3B3946"/>
</svg>
