<svg width="24" height="24" viewBox="0 0 24 24" fill="none" xmlns="http://www.w3.org/2000/svg">
<path d="M8.79674 6.56152C8.98658 5.83911 10.013 5.8383 10.203 6.56054C11.0042 9.61084 13.4113 11.9969 16.4637 12.79C17.1928 12.9795 17.1977 14.0195 16.4686 14.209L16.1835 14.2881C13.2595 15.1542 10.9792 17.4908 10.204 20.4541L10.159 20.581C9.90709 21.1361 9.09248 21.1354 8.84069 20.5801L8.79577 20.4531C8.02067 17.4904 5.7492 15.1548 2.82702 14.2861L2.54284 14.206C1.81593 14.0164 1.82081 12.9817 2.54772 12.792C5.59839 11.9958 7.99576 9.61095 8.79674 6.56152ZM9.49987 7.6582C8.51319 10.3781 6.3565 12.5219 3.63463 13.5C6.36161 14.4813 8.51519 16.6305 9.49987 19.3564C10.4869 16.6276 12.6499 14.4771 15.3807 13.499C12.6553 12.5239 10.4888 10.3808 9.49987 7.6582Z" fill="#F3F3F4"/>
<path d="M18.1108 2.32678C18.1933 1.89856 18.8067 1.89954 18.8892 2.32775C19.258 4.24203 20.7844 5.74367 22.6997 6.10705C23.1347 6.18954 23.1366 6.81819 22.7017 6.90002L22.5425 6.93615C20.7003 7.34652 19.2469 8.81235 18.8882 10.6744C18.8109 11.0755 18.2679 11.1006 18.1323 10.7496L18.1108 10.6744C17.7651 8.87894 16.403 7.4476 14.6548 6.97814L14.3003 6.89709C13.8649 6.81486 13.8649 6.18541 14.3003 6.10314C16.2168 5.74195 17.742 4.24186 18.1108 2.32678ZM18.4995 4.16467C17.9597 5.15521 17.1379 5.96761 16.144 6.49963C17.1378 7.03169 17.9606 7.84415 18.5005 8.83459C19.0403 7.84517 19.8617 7.03271 20.855 6.50158C19.8616 5.96853 19.0393 5.15543 18.4995 4.16467Z" fill="#F3F3F4"/>
</svg>
