<svg width="16" height="16" viewBox="0 0 16 16" fill="none" xmlns="http://www.w3.org/2000/svg">
<path d="M12.5 1.5V5.5" stroke="white" stroke-linecap="round" stroke-linejoin="round"/>
<path d="M10.5 3.5H14.5" stroke="white" stroke-linecap="round" stroke-linejoin="round"/>
<path d="M7 3.5C7.19997 3.5 7.38114 3.61896 7.45996 3.80273L8.88086 7.11816L12.1973 8.54004C12.381 8.61886 12.5 8.80003 12.5 9C12.5 9.19997 12.381 9.38114 12.1973 9.45996L8.88086 10.8809L7.45996 14.1973C7.38114 14.381 7.19997 14.5 7 14.5C6.80003 14.5 6.61886 14.381 6.54004 14.1973L5.11816 10.8809L1.80273 9.45996C1.61896 9.38114 1.5 9.19997 1.5 9C1.5 8.80003 1.61896 8.61886 1.80273 8.54004L5.11816 7.11816L6.54004 3.80273L6.57422 3.7373C6.66431 3.5912 6.8249 3.5 7 3.5Z" stroke="white" stroke-linejoin="round"/>
</svg>
