<svg width="12" height="12" viewBox="0 0 12 12" fill="none" xmlns="http://www.w3.org/2000/svg">
<g clip-path="url(#clip0_1422_10567)">
<path d="M6.05273 1.77637C6.45237 0.977101 7.42436 0.653099 8.22363 1.05273C9.02289 1.45238 9.34689 2.42437 8.94727 3.22363L7.6709 5.77637L9.22363 6.55273C9.43315 6.65751 9.54205 6.89382 9.48535 7.12109C9.33014 7.74195 9.24756 8.64436 9.45508 9.36035C9.55655 9.71025 9.71884 9.98788 9.94727 10.1777C10.17 10.3628 10.4978 10.5 11 10.5C11.2761 10.5 11.5 10.7239 11.5 11C11.5 11.2761 11.2761 11.5 11 11.5H3C2.70776 11.5 2.46204 11.3563 2.28125 11.1982C2.09563 11.0359 1.93209 10.8195 1.79297 10.5771C1.51356 10.0904 1.29334 9.4327 1.19238 8.69238C0.989979 7.20787 1.25888 5.30848 2.61621 3.67969L2.67578 3.61914C2.82631 3.49089 3.04194 3.46189 3.22363 3.55273L4.77637 4.3291L6.05273 1.77637Z" stroke="white" stroke-linejoin="round"/>
<path d="M2 5L9 8.5" stroke="white" stroke-linecap="round" stroke-linejoin="round"/>
</g>
<defs>
<clipPath id="clip0_1422_10567">
<rect width="12" height="12" fill="white"/>
</clipPath>
</defs>
</svg>
