<svg width="24" height="24" viewBox="0 0 24 24" fill="none" xmlns="http://www.w3.org/2000/svg">
<path d="M10.5 21.5C9.51607 20.4396 8.81916 19.0457 8.5 17.5" stroke="white" stroke-linecap="round" stroke-linejoin="round"/>
<path d="M12.4141 2.50055C12.9 1.33 14.2335 0.688189 15.4531 1.14313L15.6719 1.23688C15.8861 1.34203 16.0838 1.47947 16.2578 1.6441C16.4895 1.86343 16.6752 2.12702 16.8027 2.41949C16.9303 2.71214 16.9971 3.02799 17 3.34723C17.0029 3.66452 16.941 3.97862 16.8203 4.27203L16.8213 4.27301L14.8203 9.25153L14.8193 9.25055C14.7223 9.49616 14.7267 9.7706 14.8311 10.0132C14.9354 10.2558 15.132 10.4469 15.377 10.5455L17.7148 11.4683L17.7188 11.4703C17.9499 11.5638 18.1479 11.7244 18.2871 11.9312C18.4261 12.1379 18.5003 12.3813 18.5 12.6304V14.2496C18.5 17.0821 19.6829 19.4369 21.9688 20.5504C22.178 20.6523 22.2894 20.8851 22.2373 21.1119C22.185 21.3388 21.9829 21.4996 21.75 21.4996H5.71875C5.58293 21.4996 5.45264 21.445 5.3584 21.3472C3.52222 19.441 2.49765 16.8963 2.5 14.2496L2.5127 13.732C2.64222 11.1753 3.73048 9.09326 5.4043 7.37262L5.40723 7.37067C5.58 7.19544 5.80015 7.07434 6.04102 7.02399C6.22192 6.98622 6.40861 6.98927 6.58691 7.0318L6.76172 7.08746L6.76367 7.08844L9.14062 8.05133L9.2334 8.08258C9.32805 8.10995 9.42651 8.12304 9.52539 8.12164C9.65704 8.11976 9.78735 8.09283 9.9082 8.04059C10.0289 7.98839 10.138 7.91241 10.2295 7.81793C10.321 7.72337 10.3932 7.61125 10.4414 7.48883L10.4424 7.48785L12.4111 2.50836L12.4141 2.50055Z" stroke="white" stroke-linecap="round" stroke-linejoin="round"/>
<path d="M4.5 9.5L18.5 15.5" stroke="white" stroke-linecap="round" stroke-linejoin="round"/>
</svg>
