<svg width="16" height="16" viewBox="0 0 16 16" fill="none" xmlns="http://www.w3.org/2000/svg">
<path d="M8.12207 2.60327C8.47831 1.74508 9.45811 1.26964 10.3604 1.6062L10.3594 1.60718C10.5798 1.68913 10.7823 1.81369 10.9531 1.97534C11.1238 2.13696 11.2605 2.33113 11.3545 2.54663C11.4485 2.76226 11.4978 2.995 11.5 3.23022C11.5021 3.4634 11.4567 3.69421 11.3682 3.90991L11.3691 3.91089L10.0342 7.22632L10.0352 7.22729C9.9863 7.35035 9.9887 7.48849 10.041 7.61011C10.0931 7.73091 10.1906 7.82641 10.3125 7.87573L11.8711 8.49097L11.875 8.49194C12.0599 8.56675 12.2187 8.69558 12.3301 8.86108C12.4411 9.02618 12.5001 9.22076 12.5 9.41968V10.4998C12.5 12.3426 13.267 13.8433 14.7188 14.5505C14.928 14.6525 15.0394 14.8853 14.9873 15.1121C14.935 15.339 14.7329 15.4998 14.5 15.4998H3.8125C3.67665 15.4998 3.5464 15.4443 3.45215 15.3464C2.19834 14.0446 1.49843 12.3072 1.5 10.4998L1.50879 10.1453C1.59769 8.395 2.34393 6.96991 3.4834 5.79858L3.48535 5.79663L3.78906 6.09546L3.8418 6.14722L3.48633 5.79663C3.62452 5.65655 3.80055 5.55956 3.99316 5.51929C4.18587 5.47906 4.38656 5.49696 4.56934 5.57007L4.57129 5.57104L6.15527 6.21265L6.25 6.23999C6.28212 6.24592 6.31484 6.24826 6.34766 6.2478C6.41351 6.24687 6.47861 6.23292 6.53906 6.20679C6.59949 6.18065 6.65442 6.14278 6.7002 6.09546C6.74583 6.04823 6.78159 5.9925 6.80566 5.9314L6.80664 5.93042L8.11914 2.61108L8.12207 2.60327Z" stroke="white" stroke-linecap="round" stroke-linejoin="round"/>
<path d="M2.5 7.5L12.5 11.5" stroke="white" stroke-linecap="round" stroke-linejoin="round"/>
</svg>
