<svg width="12" height="12" viewBox="0 0 12 12" fill="none" xmlns="http://www.w3.org/2000/svg">
<path d="M6 2.5C7.38071 2.5 8.5 3.61929 8.5 5V8C8.5 9.38071 7.38071 10.5 6 10.5C4.61929 10.5 3.5 9.38071 3.5 8V5C3.5 3.61929 4.61929 2.5 6 2.5Z" stroke="white" stroke-linecap="round" stroke-linejoin="round"/>
<path d="M1.5 10.5L3.5 8.5" stroke="white" stroke-linecap="round" stroke-linejoin="round"/>
<path d="M10.5 10.5L8.5 8.5" stroke="white" stroke-linecap="round" stroke-linejoin="round"/>
<path d="M1.5 2.5L3.5 4.5" stroke="white" stroke-linecap="round" stroke-linejoin="round"/>
<path d="M10.5 2.5L8.5 4.5" stroke="white" stroke-linecap="round" stroke-linejoin="round"/>
<path d="M0.5 6.5L3.5 6.5" stroke="white" stroke-linecap="round" stroke-linejoin="round"/>
<path d="M11.5 6.5L8.5 6.5" stroke="white" stroke-linecap="round" stroke-linejoin="round"/>
<path d="M4.5 0.5L6 2" stroke="white" stroke-linecap="round" stroke-linejoin="round"/>
<path d="M7.5 0.5L6 2" stroke="white" stroke-linecap="round" stroke-linejoin="round"/>
</svg>
