<svg width="32" height="32" viewBox="0 0 32 32" fill="none" xmlns="http://www.w3.org/2000/svg">
<path d="M16 7.5C19.5416 7.5 22.5 10.1085 22.5 13.4287V21.5713C22.5 24.8915 19.5416 27.5 16 27.5C12.4584 27.5 9.5 24.8915 9.5 21.5713V13.4287C9.5 10.1085 12.4584 7.5 16 7.5Z" stroke="white" stroke-linecap="round" stroke-linejoin="round"/>
<path d="M5.5 8.5L9.5 11.5" stroke="white" stroke-linecap="round" stroke-linejoin="round"/>
<path d="M26.5 8.5L22.5 11.5" stroke="white" stroke-linecap="round" stroke-linejoin="round"/>
<path d="M5.5 26.5L9.5 23.5" stroke="white" stroke-linecap="round" stroke-linejoin="round"/>
<path d="M26.5 26.5L22.5 23.5" stroke="white" stroke-linecap="round" stroke-linejoin="round"/>
<path d="M4.5 17.5H9.5" stroke="white" stroke-linecap="round" stroke-linejoin="round"/>
<path d="M27.5 17.5H22.5" stroke="white" stroke-linecap="round" stroke-linejoin="round"/>
<path d="M11.5 4.5L13.5 7.5" stroke="white" stroke-linecap="round" stroke-linejoin="round"/>
<path d="M20.5 4.5L18.5 7.5" stroke="white" stroke-linecap="round" stroke-linejoin="round"/>
<path d="M9.5 13.5H22.5" stroke="white"/>
<path d="M18.5 14L18.5 22.2639C18.5 23.6343 19.2743 24.8871 20.5 25.5" stroke="white"/>
<path d="M13.5 14L13.5 22.2639C13.5 23.6343 12.7257 24.8871 11.5 25.5" stroke="white"/>
</svg>
