<svg width="24" height="24" viewBox="0 0 24 24" fill="none" xmlns="http://www.w3.org/2000/svg">
<path d="M12 5.5C14.4853 5.5 16.5 7.51472 16.5 10V16C16.5 18.4853 14.4853 20.5 12 20.5C9.51472 20.5 7.5 18.4853 7.5 16V10C7.5 7.51472 9.51472 5.5 12 5.5Z" stroke="white" stroke-linecap="round" stroke-linejoin="round"/>
<path d="M7.5 10.5H16.5" stroke="white"/>
<path d="M13.5 11L13.5 16C13.5 17.3807 14.6193 18.5 16 18.5" stroke="white"/>
<path d="M10.5 11L10.5 16C10.5 17.3807 9.38071 18.5 8 18.5" stroke="white"/>
<path d="M19.5 6.5L16.5 8.5" stroke="white" stroke-linecap="round" stroke-linejoin="round"/>
<path d="M4.5 6.5L7.5 8.5" stroke="white" stroke-linecap="round" stroke-linejoin="round"/>
<path d="M19.5 18.5L16.5 16.5" stroke="white" stroke-linecap="round" stroke-linejoin="round"/>
<path d="M4.5 18.5L7.5 16.5" stroke="white" stroke-linecap="round" stroke-linejoin="round"/>
<path d="M20.5 12.5H16.5" stroke="white" stroke-linecap="round" stroke-linejoin="round"/>
<path d="M3.5 12.5H7.5" stroke="white" stroke-linecap="round" stroke-linejoin="round"/>
<path d="M9.5 3.5L10.5 5.5" stroke="white" stroke-linecap="round" stroke-linejoin="round"/>
<path d="M14.5 3.5L13.5 5.5" stroke="white" stroke-linecap="round" stroke-linejoin="round"/>
</svg>
