<svg width="16" height="16" viewBox="0 0 16 16" fill="none" xmlns="http://www.w3.org/2000/svg">
<path d="M8 1.5C11.5899 1.5 14.5 4.41015 14.5 8C14.5 11.5899 11.5899 14.5 8 14.5C4.41015 14.5 1.5 11.5899 1.5 8C1.5 4.41015 4.41015 1.5 8 1.5Z" stroke="white" stroke-linecap="round" stroke-linejoin="round"/>
<path d="M8 3.5C9.19347 3.5 10.3377 3.97445 11.1816 4.81836C12.0256 5.66227 12.5 6.80653 12.5 8C12.5 9.19347 12.0256 10.3377 11.1816 11.1816C10.3377 12.0256 9.19347 12.5 8 12.5C7.72386 12.5 7.5 12.2761 7.5 12V4C7.5 3.86739 7.55272 3.74025 7.64648 3.64648C7.74025 3.55272 7.86739 3.5 8 3.5Z" stroke="white" stroke-linecap="round" stroke-linejoin="round"/>
</svg>
