<svg width="24" height="24" viewBox="0 0 24 24" fill="none" xmlns="http://www.w3.org/2000/svg">
<mask id="path-1-inside-1_1324_1930" fill="white">
<path d="M9.95495 9.80457C9.66016 10.0792 9.42373 10.4105 9.25974 10.7785C9.09575 11.1466 9.00757 11.5439 9.00047 11.9467C8.99336 12.3496 9.06747 12.7498 9.21837 13.1233C9.36927 13.4969 9.59388 13.8363 9.87878 14.1212C10.1637 14.4061 10.5031 14.6307 10.8767 14.7816C11.2503 14.9325 11.6504 15.0067 12.0533 14.9995C12.4561 14.9924 12.8534 14.9043 13.2215 14.7403C13.5895 14.5763 13.9208 14.3399 14.1955 14.0451"/>
</mask>
<path d="M10.6367 10.5362C11.0407 10.1597 11.0631 9.5269 10.6866 9.12284C10.3101 8.71879 9.67728 8.69645 9.27322 9.07295L9.95495 9.80457L10.6367 10.5362ZM14.9271 14.7268C15.3036 14.3227 15.2812 13.69 14.8772 13.3135C14.4731 12.937 13.8403 12.9593 13.4638 13.3633L14.1955 14.0451L14.9271 14.7268ZM9.95495 9.80457L9.27322 9.07295C8.88019 9.43918 8.56495 9.88083 8.34631 10.3715L9.25974 10.7785L10.1732 11.1855C10.2825 10.9401 10.4401 10.7193 10.6367 10.5362L9.95495 9.80457ZM9.25974 10.7785L8.34631 10.3715C8.12767 10.8622 8.0101 11.392 8.00062 11.9291L9.00047 11.9467L10.0003 11.9644C10.0051 11.6958 10.0638 11.4309 10.1732 11.1855L9.25974 10.7785ZM9.00047 11.9467L8.00062 11.9291C7.99115 12.4662 8.08995 12.9998 8.29115 13.4979L9.21837 13.1233L10.1456 12.7488C10.045 12.4998 9.99557 12.233 10.0003 11.9644L9.00047 11.9467ZM9.21837 13.1233L8.29115 13.4979C8.49235 13.996 8.79181 14.4485 9.17168 14.8283L9.87878 14.1212L10.5859 13.4141C10.3959 13.2242 10.2462 12.9979 10.1456 12.7488L9.21837 13.1233ZM9.87878 14.1212L9.17168 14.8283C9.55154 15.2082 10.004 15.5077 10.5021 15.7089L10.8767 14.7816L11.2512 13.8544C11.0021 13.7538 10.7758 13.6041 10.5859 13.4141L9.87878 14.1212ZM10.8767 14.7816L10.5021 15.7089C11.0003 15.9101 11.5338 16.0089 12.0709 15.9994L12.0533 14.9995L12.0356 13.9997C11.7671 14.0044 11.5003 13.955 11.2512 13.8544L10.8767 14.7816ZM12.0533 14.9995L12.0709 15.9994C12.6081 15.9899 13.1378 15.8723 13.6285 15.6537L13.2215 14.7403L12.8145 13.8268C12.5691 13.9362 12.3042 13.995 12.0356 13.9997L12.0533 14.9995ZM13.2215 14.7403L13.6285 15.6537C14.1192 15.4351 14.5608 15.1198 14.9271 14.7268L14.1955 14.0451L13.4638 13.3633C13.2807 13.5599 13.0599 13.7175 12.8145 13.8268L13.2215 14.7403Z" fill="white" mask="url(#path-1-inside-1_1324_1930)"/>
<path d="M10.8555 5.56641C11.2531 5.51771 11.6533 5.49292 12.0539 5.49219C18.6014 5.56641 21.4412 12.015 21.4412 12.015C21.0193 12.9031 20.4824 13.6975 19.8575 14.4611" stroke="white" stroke-linecap="round" stroke-linejoin="round"/>
<path d="M6.96516 6.98865C5.00818 8.20401 3.53596 10.0149 2.54181 12.0005C2.54181 12.0005 5.38805 18.583 12.1447 18.4982C14.1515 18.473 15.7286 17.8696 17.0104 17.0246" stroke="white" stroke-linecap="round" stroke-linejoin="round"/>
<path d="M2.5 2.5L21.5 21.5" stroke="white" stroke-linecap="round" stroke-linejoin="round"/>
</svg>
