<svg width="32" height="32" viewBox="0 0 32 32" fill="none" xmlns="http://www.w3.org/2000/svg">
<path d="M13.3989 13.6689C13.0814 14.0208 13.0213 14.1453 12.8033 14.532C12.6106 14.9644 12.507 15.4313 12.4987 15.9047C12.4903 16.3781 12.5774 16.8483 12.7547 17.2873C12.932 17.7263 13.196 18.1251 13.5307 18.4599C13.8655 18.7946 14.2643 19.0586 14.7033 19.2359C15.1423 19.4132 15.6125 19.5003 16.0859 19.4919C16.5593 19.4836 17.0055 19.3718 17.438 19.1791C17.8705 18.9864 18.0732 18.8257 18.4021 18.5215" stroke="white" stroke-linecap="round" stroke-linejoin="round"/>
<path d="M14.1275 7.60658C14.7007 7.54538 15.2741 7.48994 15.8518 7.48901C25.4634 7.48901 29.4374 16.014 29.4374 16.014C28.8253 17.1707 28.1945 18.0507 27.3848 18.9926" stroke="white" stroke-linecap="round" stroke-linejoin="round"/>
<path d="M8.94106 9.32629C6.21643 11.0028 3.98907 13.3084 2.57812 16C2.57812 16 6.34633 24.4929 16.403 24.4929C18.2285 24.4929 20.1652 24.1261 22.6819 22.8635" stroke="white" stroke-linecap="round" stroke-linejoin="round"/>
<path d="M2.5 2.5L29.5 29.5" stroke="white" stroke-linecap="round" stroke-linejoin="round"/>
</svg>
