<svg width="16" height="16" viewBox="0 0 16 16" fill="none" xmlns="http://www.w3.org/2000/svg">
<path d="M6.94544 6.95459C6.839 7.07334 6.71478 7.15585 6.63166 7.34383C6.54854 7.53182 6.50384 7.73475 6.50024 7.94051C6.49663 8.14628 6.5342 8.35067 6.61069 8.54149C6.68718 8.73231 6.80103 8.90565 6.94544 9.05118C7.08986 9.1967 7.26189 9.31142 7.45126 9.3885C7.64063 9.46557 7.84347 9.50342 8.04767 9.49979C8.25188 9.49616 8.45326 9.45112 8.63982 9.36736C8.82637 9.2836 8.87688 9.2273 9.01611 9.07674" stroke="white" stroke-linecap="round" stroke-linejoin="round"/>
<path d="M8.45117 3.52429C12.7031 3.80627 14.415 8.04096 14.415 8.04096C14.1242 8.66935 14.2289 8.41688 13.9506 8.90128" stroke="white" stroke-linecap="round" stroke-linejoin="round"/>
<path d="M4.50068 4.55774C3.19869 5.44417 2.18986 6.57691 1.51562 8C1.51562 8 3.41732 12.5062 8.00007 12.5062C9.25438 12.5095 10.3887 12.1635 11.4357 11.4731" stroke="white" stroke-linecap="round" stroke-linejoin="round"/>
<path d="M1.5 1.5L14.5 14.5" stroke="white" stroke-linecap="round" stroke-linejoin="round"/>
</svg>
