<svg width="16" height="16" viewBox="0 0 16 16" fill="none" xmlns="http://www.w3.org/2000/svg">
<path d="M13.3533 2.64618C14.3769 3.66981 14.3775 5.32995 13.354 6.35366L11.6594 8.04823C12.0795 8.77968 11.9785 9.7289 11.3535 10.3539L10.8536 10.8539C10.6583 11.0489 10.3417 11.0489 10.1464 10.8539L5.14629 5.85371C4.95108 5.6585 4.95118 5.34188 5.14629 5.1466L5.64624 4.64666C6.27131 4.02159 7.22045 3.9205 7.95193 4.34075L9.6465 2.64618C10.6701 1.62274 12.3296 1.62281 13.3533 2.64618Z" stroke="white" stroke-linejoin="round"/>
<path d="M6.5 6.5L3.11797 9.88203C2.43277 10.5672 2.19351 11.5808 2.49994 12.5001L1.99994 13.9999L3.49994 13.5001C4.41925 13.8064 5.43276 13.5671 6.11797 12.8819L9.5 9.5" stroke="white" stroke-linejoin="round"/>
</svg>
