<svg width="12" height="12" viewBox="0 0 12 12" fill="none" xmlns="http://www.w3.org/2000/svg">
<path d="M10.5 3.5H5.5" stroke="white" stroke-linecap="round" stroke-linejoin="round"/>
<path d="M6.5 8.5L1.5 8.5" stroke="white" stroke-linecap="round" stroke-linejoin="round"/>
<path d="M8.5 10.5C9.60457 10.5 10.5 9.60457 10.5 8.5C10.5 7.39543 9.60457 6.5 8.5 6.5C7.39543 6.5 6.5 7.39543 6.5 8.5C6.5 9.60457 7.39543 10.5 8.5 10.5Z" stroke="white" stroke-linecap="round" stroke-linejoin="round"/>
<path d="M3.5 5.5C4.60457 5.5 5.5 4.60457 5.5 3.5C5.5 2.39543 4.60457 1.5 3.5 1.5C2.39543 1.5 1.5 2.39543 1.5 3.5C1.5 4.60457 2.39543 5.5 3.5 5.5Z" stroke="white" stroke-linecap="round" stroke-linejoin="round"/>
</svg>
