<svg width="16" height="16" viewBox="0 0 16 16" fill="none" xmlns="http://www.w3.org/2000/svg">
<path d="M12.5 4.5H5.5" stroke="white" stroke-linecap="round" stroke-linejoin="round"/>
<path d="M10.5 11.5L3.5 11.5" stroke="white" stroke-linecap="round" stroke-linejoin="round"/>
<path d="M12.5 13.5C13.6046 13.5 14.5 12.6046 14.5 11.5C14.5 10.3954 13.6046 9.5 12.5 9.5C11.3954 9.5 10.5 10.3954 10.5 11.5C10.5 12.6046 11.3954 13.5 12.5 13.5Z" stroke="white" stroke-linecap="round" stroke-linejoin="round"/>
<path d="M3.5 6.5C4.60457 6.5 5.5 5.60457 5.5 4.5C5.5 3.39543 4.60457 2.5 3.5 2.5C2.39543 2.5 1.5 3.39543 1.5 4.5C1.5 5.60457 2.39543 6.5 3.5 6.5Z" stroke="white" stroke-linecap="round" stroke-linejoin="round"/>
</svg>
