<svg width="12" height="12" viewBox="0 0 12 12" fill="none" xmlns="http://www.w3.org/2000/svg">
<path d="M5.58197 7.59106C5.85854 7.75047 6.16438 7.84526 6.47873 7.86901C6.79309 7.89277 7.1086 7.84492 7.40389 7.72871C7.69917 7.61251 7.96731 7.43067 8.19012 7.19553L9.50882 5.80435C9.90918 5.36705 10.1307 4.78136 10.1257 4.17342C10.1207 3.56548 9.88955 2.98394 9.48205 2.55405C9.07455 2.12416 8.52331 1.88031 7.94704 1.87503C7.37078 1.86974 6.8156 2.10345 6.40108 2.52581" stroke="white" stroke-linecap="round" stroke-linejoin="round"/>
<path d="M5.66961 5.15882C5.39303 4.99941 5.0872 4.90461 4.77284 4.88086C4.45849 4.85711 4.14297 4.90496 3.84769 5.02116C3.55241 5.13737 3.28427 5.31921 3.06145 5.55435L1.74275 6.94553C1.3424 7.38283 1.12087 7.96852 1.12588 8.57646C1.13088 9.18439 1.36203 9.76593 1.76953 10.1958C2.17702 10.6257 2.72827 10.8696 3.30453 10.8749C3.8808 10.8801 4.43598 10.6464 4.85049 10.2241" stroke="white" stroke-linecap="round" stroke-linejoin="round"/>
</svg>
