<svg width="16" height="16" viewBox="0 0 16 16" fill="none" xmlns="http://www.w3.org/2000/svg">
<path d="M8.07422 1.50586C8.24552 1.53154 8.39395 1.64445 8.46191 1.80762C8.53951 1.99402 8.49677 2.20927 8.35449 2.35254C7.65683 3.05524 7.26585 4.00587 7.26758 4.99609C7.26932 5.98642 7.66399 6.93547 8.36426 7.63574C9.06453 8.33601 10.0136 8.73068 11.0039 8.73242C11.9941 8.73415 12.9448 8.34317 13.6475 7.64551C13.7907 7.50323 14.006 7.46049 14.1924 7.53809C14.3787 7.6157 14.5 7.79812 14.5 8C14.5 9.28558 14.1185 10.5424 13.4043 11.6113C12.6901 12.6801 11.6749 13.5129 10.4873 14.0049C9.29959 14.4969 7.99232 14.6258 6.73145 14.375C5.47075 14.1241 4.31225 13.5056 3.40332 12.5967C2.49439 11.6878 1.87586 10.5292 1.625 9.26855C1.3742 8.00768 1.50315 6.70041 1.99512 5.5127C2.48706 4.32505 3.31985 3.30993 4.38867 2.5957C5.45759 1.88147 6.71442 1.5 8 1.5L8.07422 1.50586Z" stroke="white" stroke-linecap="round" stroke-linejoin="round"/>
</svg>
