<svg width="16" height="16" viewBox="0 0 16 16" fill="none" xmlns="http://www.w3.org/2000/svg">
<path d="M8 1.5C9.02959 1.5 10.0082 1.94226 10.7236 2.71484C11.4377 3.48608 11.8329 4.52425 11.833 5.59961C11.833 7.63202 12.2365 8.90329 12.6133 9.64941C12.8021 10.0232 12.9861 10.2697 13.1152 10.417C13.1798 10.4906 13.2312 10.54 13.2627 10.5684C13.2784 10.5825 13.2898 10.5916 13.2949 10.5957C13.2973 10.5976 13.2981 10.5988 13.2979 10.5986C13.4698 10.7262 13.5414 10.9491 13.4756 11.1533C13.409 11.3599 13.217 11.5 13 11.5H3C2.78299 11.5 2.59103 11.3599 2.52441 11.1533C2.45858 10.9491 2.53024 10.7262 2.70215 10.5986L2.70508 10.5957C2.71021 10.5916 2.72156 10.5825 2.7373 10.5684C2.76879 10.54 2.82019 10.4906 2.88477 10.417C3.01394 10.2697 3.19794 10.0232 3.38672 9.64941C3.76354 8.90329 4.16699 7.63202 4.16699 5.59961C4.16709 4.52425 4.56226 3.48608 5.27637 2.71484C5.99176 1.94226 6.9704 1.5 8 1.5Z" stroke="white" stroke-linecap="round" stroke-linejoin="round"/>
<path d="M10 13.5C9.79675 13.8042 9.50502 14.0566 9.15402 14.2321C8.80302 14.4076 8.40506 14.5 8 14.5C7.59494 14.5 7.19698 14.4076 6.84598 14.2321C6.49498 14.0566 6.20325 13.8042 6 13.5" stroke="white" stroke-linecap="round" stroke-linejoin="round"/>
</svg>
