<svg width="16" height="16" viewBox="0 0 16 16" fill="none" xmlns="http://www.w3.org/2000/svg">
<path d="M6 2.5C6.27614 2.5 6.5 2.72386 6.5 3V13C6.5 13.2761 6.27614 13.5 6 13.5H4C3.72386 13.5 3.5 13.2761 3.5 13V3C3.5 2.72386 3.72386 2.5 4 2.5H6Z" stroke="white" stroke-linecap="round" stroke-linejoin="round"/>
<path d="M12 2.5C12.2761 2.5 12.5 2.72386 12.5 3V13C12.5 13.2761 12.2761 13.5 12 13.5H10C9.72386 13.5 9.5 13.2761 9.5 13V3C9.5 2.72386 9.72386 2.5 10 2.5H12Z" stroke="white" stroke-linecap="round" stroke-linejoin="round"/>
</svg>
