<svg width="12" height="12" viewBox="0 0 12 12" fill="none" xmlns="http://www.w3.org/2000/svg">
<path d="M5.5 9.5V11.5" stroke="white" stroke-linecap="round" stroke-linejoin="round"/>
<path d="M9.5 9C9.5 9.27614 9.27614 9.5 9 9.5H2C1.72386 9.5 1.5 9.27614 1.5 9V8C1.5 7.86739 1.55272 7.74025 1.64648 7.64648L3.5 5.79297V3.5H2C1.72386 3.5 1.5 3.27614 1.5 3V1C1.5 0.723858 1.72386 0.5 2 0.5H9C9.27614 0.5 9.5 0.723858 9.5 1V3C9.5 3.27614 9.27614 3.5 9 3.5H7.5V5.79297L9.35352 7.64648C9.44728 7.74025 9.5 7.86739 9.5 8V9Z" stroke="white" stroke-linejoin="round"/>
</svg>
