<svg width="16" height="16" viewBox="0 0 16 16" fill="none" xmlns="http://www.w3.org/2000/svg">
<path d="M7.5 12.5V15.5" stroke="white" stroke-linecap="round" stroke-linejoin="round"/>
<path d="M9.5 1.5C10.6046 1.5 11.5 2.39543 11.5 3.5C11.5 4.60457 10.6046 5.5 9.5 5.5V7.20996C9.5 7.8112 9.84017 8.361 10.3779 8.62988L10.4346 8.6582C11.7003 9.29106 12.5 10.5849 12.5 12C12.5 12.2761 12.2761 12.5 12 12.5H3C2.72386 12.5 2.5 12.2761 2.5 12C2.5 10.5849 3.29971 9.29106 4.56543 8.6582L4.62207 8.62988C5.15983 8.361 5.5 7.8112 5.5 7.20996V5.49902C4.39883 5.49724 3.50561 4.60641 3.50293 3.50488C3.50049 2.39872 4.39681 1.50021 5.50293 1.5H9.5Z" stroke="white" stroke-linejoin="round"/>
</svg>
