<svg width="24" height="24" viewBox="0 0 24 24" fill="none" xmlns="http://www.w3.org/2000/svg">
<path d="M11.5 17.5V22.5" stroke="white" stroke-linecap="round" stroke-linejoin="round"/>
<path d="M15 1.5C16.3807 1.5 17.5 2.61929 17.5 4C17.5 5.38071 16.3807 6.5 15 6.5H14.5V10.2803C14.5001 11.1449 14.9884 11.9355 15.7617 12.3223C17.4397 13.1612 18.5 14.876 18.5 16.752V17C18.5 17.2761 18.2761 17.5 18 17.5H5C4.72386 17.5 4.5 17.2761 4.5 17V16.752C4.50005 14.876 5.56033 13.1612 7.23828 12.3223C8.01156 11.9355 8.49988 11.1449 8.5 10.2803V6.5H8C6.61929 6.5 5.5 5.38071 5.5 4C5.5 2.61929 6.61929 1.5 8 1.5H15Z" stroke="white" stroke-linejoin="round"/>
</svg>
