<svg width="16" height="16" viewBox="0 0 16 16" fill="none" xmlns="http://www.w3.org/2000/svg">
<path d="M13.5 1.49996V5.49996H9.5" stroke="white" stroke-linecap="round" stroke-linejoin="round"/>
<path d="M2.5 14.5V10.5H6.5" stroke="white" stroke-linecap="round" stroke-linejoin="round"/>
<path d="M2.5 7.49999C2.60349 6.32753 3.10161 5.23563 3.8818 4.35433C4.66198 3.47303 5.70432 2.86526 6.85558 2.62036C8.00684 2.37547 9.2063 2.50636 10.2776 2.99379C11.349 3.48123 12.5 4.49999 13.5 5.49999" stroke="white" stroke-linecap="round"/>
<path d="M13.5 8.50001C13.3965 9.67247 12.8984 10.7644 12.1182 11.6457C11.338 12.527 10.2957 13.1347 9.14442 13.3796C7.99316 13.6245 6.7937 13.4936 5.72235 13.0062C4.65101 12.5188 3.5 11.5 2.5 10.5" stroke="white" stroke-linecap="round"/>
</svg>
