<svg width="12" height="12" viewBox="0 0 12 12" fill="none" xmlns="http://www.w3.org/2000/svg">
<path d="M10.5 1.49997V4.49997H7.5" stroke="white" stroke-linecap="round" stroke-linejoin="round"/>
<path d="M1.57871 5.16202C1.75855 4.21316 2.23888 3.34733 2.94871 2.69249C3.65854 2.03765 4.56021 1.62854 5.52046 1.52562C6.48071 1.42271 7.4486 1.63145 8.28108 2.121C9.11356 2.61054 9.76646 3.35492 10.1433 4.24411" stroke="white"/>
<path d="M10.4213 6.83798C10.2414 7.78684 9.76112 8.65267 9.05129 9.30751C8.34146 9.96235 7.43979 10.3715 6.47954 10.4744C5.51929 10.5773 4.5514 10.3685 3.71892 9.879C2.88644 9.38946 2.23354 8.64508 1.85671 7.75588" stroke="white"/>
<path d="M1.5 10.5V7.50003H4.5" stroke="white" stroke-linecap="round" stroke-linejoin="round"/>
</svg>
