<svg width="12" height="12" viewBox="0 0 12 12" fill="none" xmlns="http://www.w3.org/2000/svg">
<path d="M6 6C6.27614 6 6.5 5.77614 6.5 5.5C6.5 5.22386 6.27614 5 6 5V5.5V6ZM6 5.5V5H3V5.5V6H6V5.5Z" fill="white"/>
<path d="M1.68164 0.614258C1.84103 0.482715 2.065 0.463136 2.24512 0.564453L10.2451 5.06445C10.4025 5.15303 10.5 5.3194 10.5 5.5C10.5 5.6806 10.4025 5.84697 10.2451 5.93555L2.24512 10.4355C2.065 10.5369 1.84103 10.5173 1.68164 10.3857C1.52225 10.2542 1.46003 10.0379 1.52539 9.8418L2.97266 5.5L1.52539 1.1582C1.46003 0.962134 1.52225 0.745827 1.68164 0.614258Z" stroke="white" stroke-linejoin="round"/>
</svg>
