<svg width="12" height="12" viewBox="0 0 12 12" fill="none" xmlns="http://www.w3.org/2000/svg">
<g clip-path="url(#clip0_1886_1406)">
<path d="M11.5 7.5V11.5H0.5V7.5H11.5ZM11.5 0.5V4.5H0.5V0.5H11.5Z" stroke="white"/>
<path d="M5.5 7.5V8C5.5 8.19698 5.46112 8.39223 5.38574 8.57422C5.31036 8.75613 5.19979 8.92131 5.06055 9.06055C4.92131 9.19979 4.75613 9.31036 4.57422 9.38574C4.39223 9.46112 4.19698 9.5 4 9.5C3.80302 9.5 3.60777 9.46112 3.42578 9.38574C3.24387 9.31036 3.07869 9.19979 2.93945 9.06055C2.80021 8.92131 2.68964 8.75613 2.61426 8.57422C2.53888 8.39223 2.5 8.19698 2.5 8V7.5H5.5Z" stroke="white"/>
<path d="M5.5 0.5V1C5.5 1.19698 5.46112 1.39223 5.38574 1.57422C5.31036 1.75613 5.19979 1.92131 5.06055 2.06055C4.92131 2.19979 4.75613 2.31036 4.57422 2.38574C4.39223 2.46112 4.19698 2.5 4 2.5C3.80302 2.5 3.60777 2.46112 3.42578 2.38574C3.24387 2.31036 3.07869 2.19979 2.93945 2.06055C2.80021 1.92131 2.68964 1.75613 2.61426 1.57422C2.53888 1.39223 2.5 1.19698 2.5 1V0.5H5.5Z" stroke="white"/>
</g>
<defs>
<clipPath id="clip0_1886_1406">
<rect width="12" height="12" fill="white"/>
</clipPath>
</defs>
</svg>
