<svg width="16" height="16" viewBox="0 0 16 16" fill="none" xmlns="http://www.w3.org/2000/svg">
<g clip-path="url(#clip0_1396_12914)">
<path d="M13.0801 8.16846C13.0795 8.31525 13.1173 8.46012 13.1904 8.5874C13.2623 8.71243 13.3661 8.81592 13.4902 8.88916L13.582 8.93896L13.5977 8.94775C14.0176 9.19114 14.3237 9.59116 14.4492 10.0601C14.5746 10.5291 14.5091 11.0291 14.2666 11.4497L14.1221 11.7056L14.1191 11.7104C13.8758 12.1306 13.4759 12.4375 13.0068 12.563C12.543 12.687 12.0495 12.6231 11.6318 12.3872V12.3882L11.5312 12.3345C11.5264 12.3319 11.5214 12.3294 11.5166 12.3267C11.3899 12.2535 11.2459 12.2153 11.0996 12.2153C10.9535 12.2154 10.8101 12.2536 10.6836 12.3267L10.6826 12.3257L10.3984 12.4927L10.3965 12.4937C10.2702 12.5667 10.1649 12.6711 10.0918 12.7974C10.0187 12.9239 9.98062 13.0682 9.98047 13.2144V13.3335C9.98047 13.8195 9.78693 14.2856 9.44336 14.6294C9.09954 14.9732 8.63271 15.1665 8.14648 15.1665H7.85352C7.36729 15.1665 6.90046 14.9732 6.55664 14.6294C6.21307 14.2856 6.01953 13.8195 6.01953 13.3335V13.2144L6.0127 13.105C5.99834 12.9971 5.96303 12.8922 5.9082 12.7974C5.83514 12.6711 5.72981 12.5667 5.60352 12.4937L5.60156 12.4927L5.31641 12.3257C5.18997 12.2528 5.04632 12.2154 4.90039 12.2153C4.75411 12.2153 4.61008 12.2535 4.4834 12.3267C4.47861 12.3294 4.47363 12.3319 4.46875 12.3345L4.36816 12.3882L4.36719 12.3872C3.94969 12.6228 3.45671 12.6869 2.99316 12.563C2.52412 12.4375 2.12423 12.1306 1.88086 11.7104L1.73438 11.4575L1.7334 11.4565C1.4908 11.0359 1.42534 10.536 1.55078 10.0669C1.66063 9.65626 1.90888 9.29832 2.25098 9.05225L2.40234 8.95459L2.49609 8.89795L2.50293 8.89404C2.6301 8.82062 2.7364 8.71472 2.80957 8.5874C2.88269 8.46012 2.9205 8.31525 2.91992 8.16846V7.82959C2.919 7.68431 2.87964 7.54212 2.80664 7.4165C2.73354 7.29078 2.62888 7.18551 2.50293 7.11279C2.4938 7.10751 2.48437 7.10205 2.47559 7.09619L2.37598 7.02979V7.02881C1.96982 6.78404 1.67349 6.39202 1.55078 5.93311C1.42537 5.46396 1.49075 4.96411 1.7334 4.54346H1.73438L1.88086 4.28955C2.12424 3.86941 2.52412 3.5625 2.99316 3.43701C3.45666 3.31307 3.94972 3.3773 4.36719 3.61279H4.36816L4.46875 3.66553L4.4834 3.67334C4.61008 3.74648 4.75411 3.78564 4.90039 3.78564C5.04654 3.78558 5.18984 3.74642 5.31641 3.67334L5.60156 3.5083L5.60352 3.50732C5.73002 3.43427 5.83508 3.3291 5.9082 3.20264C5.98128 3.07621 6.01933 2.93265 6.01953 2.78662V2.6665C6.01962 2.1805 6.21305 1.71432 6.55664 1.37061C6.90046 1.02679 7.36729 0.833496 7.85352 0.833496H8.14648C8.63271 0.833496 9.09954 1.02679 9.44336 1.37061C9.78695 1.71432 9.98038 2.1805 9.98047 2.6665V2.78662L9.9873 2.89502C10.0016 3.00303 10.0369 3.1077 10.0918 3.20264C10.1466 3.29748 10.2193 3.3805 10.3057 3.44678L10.3965 3.50732L10.3984 3.5083L10.6826 3.67334C10.8092 3.74641 10.9535 3.78558 11.0996 3.78564C11.2459 3.78564 11.3899 3.74648 11.5166 3.67334C11.5214 3.67058 11.5264 3.66813 11.5312 3.66553L11.6318 3.61279C12.0495 3.37695 12.5431 3.313 13.0068 3.43701C13.4759 3.5625 13.8758 3.86941 14.1191 4.28955L14.2656 4.54346H14.2666C14.5093 4.96411 14.5746 5.46396 14.4492 5.93311C14.3238 6.40222 14.0178 6.80295 13.5977 7.04639L13.5967 7.04541L13.5039 7.10205L13.4971 7.10693C13.3699 7.18033 13.2636 7.28533 13.1904 7.4126C13.1173 7.53991 13.0795 7.6847 13.0801 7.83154V8.16846Z" stroke="white" stroke-linecap="round" stroke-linejoin="round"/>
<path d="M8 6.5C8.82843 6.5 9.5 7.17157 9.5 8C9.5 8.82843 8.82843 9.5 8 9.5C7.17157 9.5 6.5 8.82843 6.5 8C6.5 7.17157 7.17157 6.5 8 6.5Z" stroke="white" stroke-linecap="round" stroke-linejoin="round"/>
</g>
<defs>
<clipPath id="clip0_1396_12914">
<rect width="16" height="16" fill="white"/>
</clipPath>
</defs>
</svg>
