<svg width="16" height="16" viewBox="0 0 16 16" fill="none" xmlns="http://www.w3.org/2000/svg">
<path d="M7.79688 4.51465C8.48351 4.58291 9.1289 4.88671 9.62109 5.37891C10.1837 5.94152 10.5 6.70435 10.5 7.5L10.4854 7.79688C10.4171 8.48351 10.1133 9.1289 9.62109 9.62109C9.1289 10.1133 8.48351 10.4171 7.79688 10.4854L7.5 10.5C6.70435 10.5 5.94152 10.1837 5.37891 9.62109C4.8163 9.05848 4.5 8.29565 4.5 7.5L4.51465 7.20312C4.58291 6.51649 4.88671 5.8711 5.37891 5.37891C5.94152 4.8163 6.70435 4.5 7.5 4.5L7.79688 4.51465Z" stroke="white" stroke-linecap="round" stroke-linejoin="round"/>
<path d="M7.5 1.5V2.5" stroke="white" stroke-linecap="round" stroke-linejoin="round"/>
<path d="M3 3L4 4" stroke="white" stroke-linecap="round" stroke-linejoin="round"/>
<path d="M1.505 7.505L2.505 7.505" stroke="white" stroke-linecap="round" stroke-linejoin="round"/>
<path d="M3 12L4 11" stroke="white" stroke-linecap="round" stroke-linejoin="round"/>
<path d="M7.5 12.5V13.5" stroke="white" stroke-linecap="round" stroke-linejoin="round"/>
<path d="M11 11L12 12" stroke="white" stroke-linecap="round" stroke-linejoin="round"/>
<path d="M12.505 7.505L13.505 7.505" stroke="white" stroke-linecap="round" stroke-linejoin="round"/>
<path d="M11 4L12 3" stroke="white" stroke-linecap="round" stroke-linejoin="round"/>
</svg>
