<svg width="16" height="16" viewBox="0 0 16 16" fill="none" xmlns="http://www.w3.org/2000/svg">
<path d="M2.8035 10.2956C2.32002 9.80158 1.95551 9.13834 1.73716 8.48253C1.51882 7.82672 1.45257 7.12982 1.54345 6.44461C1.63433 5.75941 1.87995 5.10387 2.26171 4.52765C2.64346 3.95143 3.15134 3.46965 3.74688 3.11878C4.34241 2.76792 5.00998 2.55719 5.69902 2.50254C6.38806 2.44789 7.08051 2.55077 7.7239 2.80337C8.36729 3.05597 8.94477 3.45168 9.41258 3.96052C9.88039 4.46936 10.2263 4.86985 10.424 5.53216H11.5889C12.4441 5.53216 13.0389 6.02727 13.3335 6.3165C13.8455 6.81921 14.2091 7.21742 14.3915 7.81868C14.5739 8.41993 14.558 9.06391 14.3463 9.65547C14.1346 10.247 13.738 10.5973 13.2155 10.9463" stroke="white" stroke-linecap="round" stroke-linejoin="round"/>
<path d="M8.5 7.5V13.5" stroke="white" stroke-linecap="round" stroke-linejoin="round"/>
<path d="M6.5 11.5L8.49967 13.5L10.5 11.5" stroke="white" stroke-linecap="round" stroke-linejoin="round"/>
</svg>
