<svg width="16" height="16" viewBox="0 0 16 16" fill="none" xmlns="http://www.w3.org/2000/svg">
<path d="M6.64581 2.64648C6.7888 2.50349 7.0039 2.46071 7.19073 2.53809C7.37753 2.61549 7.49933 2.79779 7.49933 3V13C7.49933 13.2022 7.37753 13.3845 7.19073 13.4619C7.0039 13.5393 6.7888 13.4965 6.64581 13.3535L3.79327 10.5H0.999329C0.723186 10.5 0.499329 10.2761 0.499329 10V6C0.499329 5.72386 0.723186 5.5 0.999329 5.5H3.79327L6.64581 2.64648Z" stroke="white" stroke-linecap="round" stroke-linejoin="round"/>
<path d="M10.5 4.5C11.1403 5.29573 11.5 6.87483 11.5 8C11.5 9.12517 11.1403 10.7043 10.5 11.5" stroke="white" stroke-linecap="round" stroke-linejoin="round"/>
<path d="M12.5004 2.5C13.7502 3.75018 14.5004 6.23224 14.5004 8C14.5004 9.76776 13.7502 12.2498 12.5004 13.5" stroke="white" stroke-linecap="round" stroke-linejoin="round"/>
</svg>
