<svg width="16" height="16" viewBox="0 0 16 16" fill="none" xmlns="http://www.w3.org/2000/svg">
<path d="M6.64581 2.64648C6.7888 2.50349 7.0039 2.46071 7.19073 2.53809C7.37753 2.61549 7.49933 2.79779 7.49933 3V13C7.49933 13.2022 7.37753 13.3845 7.19073 13.4619C7.0039 13.5393 6.7888 13.4965 6.64581 13.3535L3.79327 10.5H0.999329C0.723186 10.5 0.499329 10.2761 0.499329 10V6C0.499329 5.72386 0.723186 5.5 0.999329 5.5H3.79327L6.64581 2.64648Z" stroke="white" stroke-linecap="round" stroke-linejoin="round"/>
<path d="M15.5 5.5C15.5 5.5 12.0621 8.9379 10.5 10.5" stroke="white" stroke-linecap="round" stroke-linejoin="round"/>
<path d="M10.5 5.5L15.5 10.5" stroke="white" stroke-linecap="round" stroke-linejoin="round"/>
</svg>
