<svg width="512" height="512" viewBox="0 0 512 512" fill="none" xmlns="http://www.w3.org/2000/svg">
<g clip-path="url(#clip0_532_207)">
<path d="M255.569 414.705L235.025 496.852C232.799 505.755 224.799 512 215.623 512H25.6153C12.6039 512 3.05679 499.772 6.21239 487.149L32.9614 380.149C35.1871 371.246 43.1868 365 52.3643 365H216.764C242.789 365 261.883 389.458 255.569 414.705Z" fill="#3B3946"/>
<path d="M479.039 380.149L505.788 487.149C508.943 499.772 499.396 512 486.385 512H306.361C293.349 512 283.802 499.772 286.958 487.149L301.781 427.867C311.019 390.919 344.217 365 382.302 365H459.636C468.813 365 476.813 371.246 479.039 380.149Z" fill="#3B3946"/>
<path d="M353.264 24.8651L295.752 254.19C286.493 291.11 253.308 317 215.245 317H74.3889C61.3781 317 51.8311 304.773 54.9857 292.151L124.214 15.1507C126.439 6.24669 134.439 0 143.617 0H333.865C346.883 0 356.431 12.2386 353.264 24.8651Z" fill="#3B3946"/>
<path d="M406.183 88.7339L457.035 292.149C460.191 304.772 450.644 317 437.632 317H380.778C354.74 317 335.643 292.519 341.98 267.264L386.782 88.7253C389.315 78.6325 403.659 78.6389 406.183 88.7339Z" fill="#3B3946"/>
</g>
<defs>
<clipPath id="clip0_532_207">
<rect width="512" height="512" fill="white"/>
</clipPath>
</defs>
</svg>
