<svg width="24" height="24" viewBox="0 0 24 24" fill="none" xmlns="http://www.w3.org/2000/svg">
<path d="M17 2C18.6569 2 20 3.34315 20 5V21.1953C20 21.9807 19.1358 22.4602 18.4697 22.0439L12.5303 18.3311C12.206 18.1284 11.794 18.1284 11.4697 18.3311L5.53027 22.0439C4.86423 22.4602 4 21.9807 4 21.1953V5C4 3.34315 5.34315 2 7 2H17ZM12 6C11.4477 6 11 6.44772 11 7V9H9C8.44772 9 8 9.44772 8 10C8 10.5523 8.44772 11 9 11H11V13C11 13.5523 11.4477 14 12 14C12.5523 14 13 13.5523 13 13V11H15C15.5523 11 16 10.5523 16 10C16 9.44772 15.5523 9 15 9H13V7C13 6.44772 12.5523 6 12 6Z" fill="black"/>
</svg>
