<svg width="24" height="24" viewBox="0 0 24 24" fill="none" xmlns="http://www.w3.org/2000/svg">
<path d="M12 2C14.9122 2 17.5327 3.24577 19.3604 5.23242C19.3506 5.24053 19.3405 5.24829 19.3311 5.25684L9.94141 13.7061L6.59961 11.2002C6.15779 10.869 5.53153 10.9586 5.2002 11.4004C4.86896 11.8422 4.95861 12.4685 5.40039 12.7998L9.40039 15.7998C9.7826 16.0863 10.3139 16.0627 10.6689 15.7432L20.5645 6.83594C21.4753 8.34334 22 10.1103 22 12C22 17.5228 17.5228 22 12 22C6.47715 22 2 17.5228 2 12C2 6.47715 6.47715 2 12 2Z" fill="black"/>
</svg>
