<svg width="16" height="16" viewBox="0 0 16 16" fill="none" xmlns="http://www.w3.org/2000/svg">
<path fill-rule="evenodd" clip-rule="evenodd" d="M8 2C10.8259 2.00004 12.8247 3.45082 14.0771 4.82715C14.7041 5.51615 15.1597 6.20171 15.459 6.71484C15.6091 6.97214 15.7215 7.18893 15.7979 7.34473C15.836 7.4225 15.8652 7.4859 15.8857 7.53125C15.8959 7.55376 15.9042 7.57233 15.9102 7.58594C15.9131 7.59275 15.9161 7.59907 15.918 7.60352C15.9187 7.60532 15.9193 7.60701 15.9199 7.6084L15.9209 7.61133L15.9219 7.6123L15.9561 7.70703C16.0145 7.89792 16.0145 8.10208 15.9561 8.29297L15.9219 8.3877L15.9209 8.38867L15.9199 8.3916C15.9193 8.39299 15.9187 8.39468 15.918 8.39648C15.9161 8.40093 15.9131 8.40725 15.9102 8.41406C15.9042 8.42767 15.8959 8.44624 15.8857 8.46875C15.8652 8.5141 15.836 8.5775 15.7979 8.65527C15.7215 8.81107 15.6091 9.02786 15.459 9.28516C15.1597 9.79829 14.7041 10.4839 14.0771 11.1729C12.8247 12.5492 10.8259 14 8 14C5.17407 14 3.17533 12.5492 1.92285 11.1729C1.29589 10.4839 0.840355 9.7983 0.541015 9.28516C0.390926 9.02786 0.278504 8.81107 0.202148 8.65527C0.164043 8.57751 0.134792 8.5141 0.114258 8.46875C0.104071 8.44625 0.0957774 8.42767 0.0898435 8.41406C0.0868777 8.40726 0.083935 8.40093 0.082031 8.39648C0.0812587 8.39468 0.0806666 8.39299 0.0800778 8.3916L0.0791013 8.38867L0.0781247 8.3877C-0.0258992 8.14002 -0.0258992 7.85998 0.0781247 7.6123L0.0791013 7.61133L0.0800778 7.6084C0.0806666 7.60701 0.0812587 7.60532 0.082031 7.60352C0.083935 7.59907 0.0868777 7.59274 0.0898435 7.58594C0.0957774 7.57233 0.104071 7.55375 0.114258 7.53125C0.134792 7.4859 0.164043 7.42249 0.202148 7.34473C0.278504 7.18893 0.390926 6.97214 0.541015 6.71484C0.840355 6.2017 1.29589 5.51614 1.92285 4.82715C3.17533 3.45081 5.17407 2 8 2ZM8 6C6.89543 6 6 6.89543 6 8C6 9.10457 6.89543 10 8 10C9.10452 9.99994 10 9.10453 10 8C10 6.89547 9.10452 6.00006 8 6Z" fill="black"/>
</svg>
