<svg width="24" height="24" viewBox="0 0 24 24" fill="none" xmlns="http://www.w3.org/2000/svg">
<path d="M12 4C15.8679 4 18.6147 5.94269 20.3574 7.81934C21.229 8.75796 21.864 9.69356 22.2812 10.3945C22.4904 10.746 22.6466 11.0413 22.7519 11.252C22.8046 11.3572 22.8443 11.4418 22.8721 11.502C22.8859 11.5319 22.8975 11.5558 22.9053 11.5732C22.9091 11.5819 22.9117 11.5893 22.914 11.5947C22.9152 11.5973 22.9162 11.5997 22.917 11.6016C22.9174 11.6025 22.9176 11.6038 22.918 11.6045L22.9189 11.6055C22.9179 11.6064 22.8857 11.6204 22 12C22.8857 12.3796 22.9179 12.3936 22.9189 12.3945L22.918 12.3955C22.9176 12.3962 22.9174 12.3975 22.917 12.3984C22.9162 12.4003 22.9152 12.4027 22.914 12.4053C22.9117 12.4107 22.9091 12.4181 22.9053 12.4268C22.8975 12.4442 22.8859 12.4681 22.8721 12.498C22.8443 12.5582 22.8046 12.6428 22.7519 12.748C22.6466 12.9587 22.4904 13.254 22.2812 13.6055C21.864 14.3064 21.229 15.242 20.3574 16.1807C18.6147 18.0573 15.8679 20 12 20C8.13205 20 5.38527 18.0573 3.64256 16.1807C2.77098 15.242 2.13599 14.3064 1.71873 13.6055C1.50955 13.254 1.35338 12.9587 1.24803 12.748C1.19539 12.6428 1.15568 12.5582 1.12791 12.498C1.11407 12.4681 1.10248 12.4442 1.09471 12.4268C1.09088 12.4181 1.08828 12.4107 1.08592 12.4053C1.08479 12.4027 1.08378 12.4003 1.08299 12.3984C1.08259 12.3975 1.08233 12.3962 1.08202 12.3955L1.08104 12.3945C1.08185 12.3937 1.11151 12.3808 1.99998 12C1.11151 11.6192 1.08185 11.6063 1.08104 11.6055L1.08202 11.6045C1.08233 11.6038 1.08259 11.6025 1.08299 11.6016C1.08378 11.5997 1.08479 11.5973 1.08592 11.5947C1.08828 11.5893 1.09088 11.5819 1.09471 11.5732C1.10248 11.5558 1.11407 11.5319 1.12791 11.502C1.15568 11.4418 1.19539 11.3572 1.24803 11.252C1.35338 11.0413 1.50955 10.746 1.71873 10.3945C2.13599 9.69356 2.77098 8.75796 3.64256 7.81934C5.38527 5.94269 8.13205 4.00001 12 4ZM12 9C10.3431 9.00001 8.99998 10.3432 8.99998 12C8.99998 13.6568 10.3431 15 12 15C13.6568 15 15 13.6569 15 12C15 10.3431 13.6568 9 12 9ZM1.99998 12L1.08104 12.3936C0.973371 12.1421 0.973371 11.8579 1.08104 11.6064L1.99998 12ZM22.9189 11.6064C23.0266 11.8579 23.0266 12.1421 22.9189 12.3936L22 12L22.9189 11.6064Z" fill="black"/>
</svg>
