<svg width="16" height="16" viewBox="0 0 16 16" fill="none" xmlns="http://www.w3.org/2000/svg">
<path d="M4 11C4.53043 11 5.03914 10.7893 5.41421 10.4142C5.78929 10.0391 6 9.53043 6 9C6 8.46957 5.78929 7.96086 5.41421 7.58579C5.03914 7.21071 4.53043 7 4 7C3.46957 7 2.96086 7.21071 2.58579 7.58579C2.21071 7.96086 2 8.46957 2 9C2 9.53043 2.21071 10.0391 2.58579 10.4142C2.96086 10.7893 3.46957 11 4 11Z" stroke="black" stroke-width="2" stroke-linecap="round" stroke-linejoin="round"/>
<path d="M7 12L5.5 10.5" stroke="black" stroke-width="2" stroke-linecap="round" stroke-linejoin="round"/>
<path d="M2 15H13V4L10 1H3V4" stroke="black" stroke-width="2"/>
<path d="M13 4.5H9.5V1H10.707L13 3.29297V4.5Z" fill="black" stroke="black"/>
</svg>
