<svg width="24" height="24" viewBox="0 0 24 24" fill="none" xmlns="http://www.w3.org/2000/svg">
<path d="M13.7578 1C14.8185 1.00012 15.8359 1.42184 16.5859 2.17188L19.8281 5.41406C20.5782 6.1641 20.9999 7.18149 21 8.24219V19C21 21.2091 19.2091 23 17 23H7C4.79086 23 3 21.2091 3 19V5C3 2.79086 4.79086 1 7 1H13.7578ZM15.707 12.293C15.3165 11.9024 14.6835 11.9024 14.293 12.293L11 15.5859L9.70703 14.293C9.31651 13.9024 8.68349 13.9024 8.29297 14.293C7.90244 14.6835 7.90244 15.3165 8.29297 15.707L10.293 17.707C10.6835 18.0976 11.3165 18.0976 11.707 17.707L15.707 13.707C16.0976 13.3165 16.0976 12.6835 15.707 12.293ZM14 8H19V7.5L14 3V8Z" fill="black"/>
</svg>
