<svg width="24" height="24" viewBox="0 0 24 24" fill="none" xmlns="http://www.w3.org/2000/svg">
<path d="M5 17C5.39397 17 5.78407 16.9224 6.14805 16.7716C6.51203 16.6209 6.84274 16.3999 7.12132 16.1213C7.3999 15.8427 7.62087 15.512 7.77164 15.1481C7.9224 14.7841 8 14.394 8 14C8 13.606 7.9224 13.2159 7.77164 12.8519C7.62087 12.488 7.3999 12.1573 7.12132 11.8787C6.84274 11.6001 6.51203 11.3791 6.14805 11.2284C5.78407 11.0776 5.39397 11 5 11C4.20435 11 3.44129 11.3161 2.87868 11.8787C2.31607 12.4413 2 13.2044 2 14C2 14.7956 2.31607 15.5587 2.87868 16.1213C3.44129 16.6839 4.20435 17 5 17Z" fill="black" stroke="black" stroke-width="2" stroke-linecap="round" stroke-linejoin="round"/>
<path d="M9 18L7.5 16.5" stroke="black" stroke-width="2" stroke-linecap="round" stroke-linejoin="round"/>
<path d="M4 22H17C18.6569 22 20 20.6569 20 19V8.24264C20 7.44699 19.6839 6.68393 19.1213 6.12132L15.8787 2.87868C15.3161 2.31607 14.553 2 13.7574 2H7C5.34315 2 4 3.34315 4 5V7" stroke="black" stroke-width="2" stroke-linecap="round"/>
<path d="M14 2.5V8H19.5" stroke="black" stroke-width="2" stroke-linecap="round" stroke-linejoin="round"/>
</svg>
