<svg width="24" height="24" viewBox="0 0 24 24" fill="none" xmlns="http://www.w3.org/2000/svg">
<path d="M8.17188 2C8.7022 2.00008 9.21094 2.21094 9.58594 2.58594L11.4141 4.41406C11.7891 4.78906 12.2978 4.99992 12.8281 5H20C21.6569 5 23 6.34315 23 8V18C23 19.6569 21.6569 21 20 21H4C2.34315 21 1 19.6569 1 18V5C1 3.34315 2.34315 2 4 2H8.17188ZM12 9C11.4477 9 11 9.44772 11 10V12H9C8.44772 12 8 12.4477 8 13C8 13.5523 8.44772 14 9 14H11V16C11 16.5523 11.4477 17 12 17C12.5523 17 13 16.5523 13 16V14H15C15.5523 14 16 13.5523 16 13C16 12.4477 15.5523 12 15 12H13V10C13 9.44772 12.5523 9 12 9Z" fill="black"/>
</svg>
