<svg width="16" height="16" viewBox="0 0 16 16" fill="none" xmlns="http://www.w3.org/2000/svg">
<path d="M9.30273 3H15V14H1V9H5.58594L5.29297 9.29297C4.90244 9.68349 4.90244 10.3165 5.29297 10.707C5.68349 11.0976 6.31651 11.0976 6.70703 10.707L8.70703 8.70703C8.73449 8.67957 8.75863 8.64981 8.78223 8.62012C8.81843 8.57451 8.851 8.52618 8.87891 8.47461C8.88641 8.46072 8.89359 8.44677 8.90039 8.43262C8.92216 8.3874 8.9412 8.34068 8.95605 8.29199C8.96875 8.2503 8.97725 8.20777 8.98438 8.16504C8.99333 8.11125 9 8.05633 9 8C9 7.92022 8.98933 7.84294 8.97168 7.76855C8.9668 7.74799 8.96225 7.72732 8.95605 7.70703C8.94116 7.65838 8.92219 7.61159 8.90039 7.56641C8.88123 7.52662 8.8597 7.48768 8.83496 7.4502C8.79758 7.39354 8.75484 7.34078 8.70703 7.29297L6.70703 5.29297C6.31651 4.90244 5.68349 4.90244 5.29297 5.29297C4.90244 5.68349 4.90244 6.31651 5.29297 6.70703L5.58594 7H1V1H6.30273L9.30273 3Z" fill="black"/>
</svg>
