<svg width="24" height="24" viewBox="0 0 24 24" fill="none" xmlns="http://www.w3.org/2000/svg">
<path d="M8.17188 2C8.7022 2.00008 9.21094 2.21094 9.58594 2.58594L11.4141 4.41406C11.7891 4.78906 12.2978 4.99992 12.8281 5H20C21.6569 5 23 6.34315 23 8V18C23 19.6569 21.6569 21 20 21H4C2.34315 21 1 19.6569 1 18V14H9.58594L8.29297 15.293C7.90244 15.6835 7.90244 16.3165 8.29297 16.707C8.68349 17.0976 9.31651 17.0976 9.70703 16.707L12.707 13.707C12.7345 13.6796 12.7586 13.6498 12.7822 13.6201C12.8184 13.5745 12.851 13.5262 12.8789 13.4746C12.8864 13.4607 12.8936 13.4468 12.9004 13.4326C12.9222 13.3874 12.9412 13.3407 12.9561 13.292C12.9688 13.2503 12.9772 13.2078 12.9844 13.165C12.9933 13.1112 13 13.0563 13 13C13 12.9202 12.9893 12.8429 12.9717 12.7686C12.9668 12.748 12.9623 12.7273 12.9561 12.707C12.9412 12.6584 12.9222 12.6116 12.9004 12.5664C12.8812 12.5266 12.8597 12.4877 12.835 12.4502C12.7976 12.3935 12.7548 12.3408 12.707 12.293L9.70703 9.29297C9.31651 8.90244 8.68349 8.90244 8.29297 9.29297C7.90244 9.68349 7.90244 10.3165 8.29297 10.707L9.58594 12H1V5C1 3.34315 2.34315 2 4 2H8.17188Z" fill="black"/>
</svg>
