<svg width="24" height="24" viewBox="0 0 24 24" fill="none" xmlns="http://www.w3.org/2000/svg">
<path d="M7.92969 2C8.93273 2.00002 9.86939 2.50136 10.4258 3.33594L11.2383 4.55469C11.4237 4.83287 11.736 4.99998 12.0703 5H17.4385C18.7709 5.00001 19.8606 5.85503 20.2676 7H10.1875C9.08968 7 8.07941 7.59971 7.55371 8.56348L5.12207 13.0215C4.85782 13.5063 5.03673 14.1135 5.52148 14.3779C6.00629 14.6422 6.61352 14.4633 6.87793 13.9785L9.30957 9.52148C9.4848 9.20022 9.82156 9 10.1875 9H20.2803L20.2754 9.01855C22.0512 9.2149 23.2943 10.9449 22.8486 12.7275L21.3486 18.7275C21.0148 20.063 19.8151 21 18.4385 21H4C2.34315 21 1 19.6569 1 18V5C1 3.34315 2.34315 2 4 2H7.92969Z" fill="black"/>
</svg>
