<svg width="24" height="24" viewBox="0 0 24 24" fill="none" xmlns="http://www.w3.org/2000/svg">
<path d="M8.17188 2C8.7022 2.00008 9.21094 2.21094 9.58594 2.58594L11.4141 4.41406C11.7891 4.78906 12.2978 4.99992 12.8281 5H20C21.6569 5 23 6.34315 23 8V18C23 19.6569 21.6569 21 20 21H4C2.34315 21 1 19.6569 1 18V5C1 3.34315 2.34315 2 4 2H8.17188ZM8.70703 9.29297C8.31651 8.90244 7.68349 8.90244 7.29297 9.29297L4.29297 12.293C4.24516 12.3408 4.20242 12.3935 4.16504 12.4502C4.1403 12.4877 4.11877 12.5266 4.09961 12.5664C4.07777 12.6117 4.05787 12.6583 4.04297 12.707C4.03678 12.7273 4.03221 12.748 4.02734 12.7686C4.00973 12.8429 4 12.9203 4 13C4 13.0563 4.00571 13.1113 4.01465 13.165C4.02176 13.2077 4.0303 13.2503 4.04297 13.292C4.05783 13.3408 4.0778 13.3873 4.09961 13.4326C4.10634 13.4466 4.11269 13.4609 4.12012 13.4746C4.14798 13.5261 4.18065 13.5745 4.2168 13.6201C4.2405 13.65 4.26536 13.6794 4.29297 13.707L7.29297 16.707C7.68349 17.0976 8.31651 17.0976 8.70703 16.707C9.09756 16.3165 9.09756 15.6835 8.70703 15.293L7.41406 14H13C13.5523 14 14 13.5523 14 13C14 12.4477 13.5523 12 13 12H7.41406L8.70703 10.707C9.09756 10.3165 9.09756 9.68349 8.70703 9.29297Z" fill="black"/>
</svg>
