<svg width="24" height="24" viewBox="0 0 24 24" fill="none" xmlns="http://www.w3.org/2000/svg">
<path d="M20 10V8C20 6.89543 19.1046 6 18 6H12.0704C11.4017 6 10.7772 5.6658 10.4063 5.1094L9.59373 3.8906C9.2228 3.3342 8.59834 3 7.92963 3H4C2.89543 3 2 3.89543 2 5V18C2 19.1046 2.89543 20 4 20H18.4384C19.3562 20 20.1561 19.3754 20.3787 18.4851L21.8787 12.4851C22.1943 11.2228 21.2396 10 19.9384 10H9.23607C8.47852 10 7.786 10.428 7.44721 11.1056L6 14" stroke="black" stroke-width="2" stroke-linecap="round"/>
</svg>
