<svg width="16" height="16" viewBox="0 0 16 16" fill="none" xmlns="http://www.w3.org/2000/svg">
<path d="M9.30273 3H15V14H1V1H6.30273L9.30273 3ZM6.70703 5.29297C6.31651 4.90244 5.68349 4.90244 5.29297 5.29297L3.29297 7.29297C3.24516 7.34078 3.20242 7.39354 3.16504 7.4502C3.1403 7.48768 3.11877 7.52662 3.09961 7.56641C3.07777 7.61167 3.05787 7.65828 3.04297 7.70703C3.03678 7.7273 3.03221 7.748 3.02734 7.76855C3.00973 7.84287 3 7.9203 3 8C3 8.05628 3.00571 8.11129 3.01465 8.16504C3.02176 8.20773 3.0303 8.25034 3.04297 8.29199C3.05783 8.34077 3.0778 8.38731 3.09961 8.43262C3.10634 8.44663 3.11269 8.46086 3.12012 8.47461C3.14798 8.52615 3.18065 8.57453 3.2168 8.62012C3.2405 8.64998 3.26536 8.67942 3.29297 8.70703L5.29297 10.707C5.68349 11.0976 6.31651 11.0976 6.70703 10.707C7.09756 10.3165 7.09756 9.68349 6.70703 9.29297L6.41406 9H10C10.5523 9 11 8.55228 11 8C11 7.44772 10.5523 7 10 7H6.41406L6.70703 6.70703C7.09756 6.31651 7.09756 5.68349 6.70703 5.29297Z" fill="black"/>
</svg>
