<svg width="16" height="16" viewBox="0 0 16 16" fill="none" xmlns="http://www.w3.org/2000/svg">
<g clip-path="url(#clip0_558_488)">
<path d="M3 16L3 -4.37114e-07L13 0L13 16L3 16ZM7 3C7 2.44771 6.55228 2 6 2C5.44772 2 5 2.44771 5 3C5 3.55228 5.44772 4 6 4C6.55228 4 7 3.55228 7 3ZM7 8C7 7.44771 6.55228 7 6 7C5.44771 7 5 7.44771 5 8C5 8.55228 5.44771 9 6 9C6.55228 9 7 8.55228 7 8ZM7 13C7 12.4477 6.55228 12 6 12C5.44771 12 5 12.4477 5 13C5 13.5523 5.44771 14 6 14C6.55228 14 7 13.5523 7 13ZM11 3C11 2.44772 10.5523 2 10 2C9.44772 2 9 2.44772 9 3C9 3.55228 9.44772 4 10 4C10.5523 4 11 3.55228 11 3ZM11 8C11 7.44772 10.5523 7 10 7C9.44771 7 9 7.44772 9 8C9 8.55228 9.44771 9 10 9C10.5523 9 11 8.55228 11 8ZM11 13C11 12.4477 10.5523 12 10 12C9.44771 12 9 12.4477 9 13C9 13.5523 9.44771 14 10 14C10.5523 14 11 13.5523 11 13Z" fill="black"/>
</g>
<defs>
<clipPath id="clip0_558_488">
<rect width="16" height="16" fill="white"/>
</clipPath>
</defs>
</svg>
