<svg width="24" height="24" viewBox="0 0 24 24" fill="none" xmlns="http://www.w3.org/2000/svg">
<path d="M19 20C19 21.6569 17.6569 23 16 23L8 23C6.34314 23 5 21.6569 5 20L5 4C5 2.34315 6.34315 0.999999 8 1L16 1C17.6569 1 19 2.34315 19 4L19 20ZM11 5.5C11 4.67157 10.3284 4 9.5 4C8.67157 4 8 4.67157 8 5.5C8 6.32843 8.67157 7 9.5 7C10.3284 7 11 6.32843 11 5.5ZM11 12C11 11.1716 10.3284 10.5 9.5 10.5C8.67157 10.5 8 11.1716 8 12C8 12.8284 8.67157 13.5 9.5 13.5C10.3284 13.5 11 12.8284 11 12ZM11 18.5C11 17.6716 10.3284 17 9.5 17C8.67157 17 8 17.6716 8 18.5C8 19.3284 8.67157 20 9.5 20C10.3284 20 11 19.3284 11 18.5ZM16 5.5C16 4.67157 15.3284 4 14.5 4C13.6716 4 13 4.67157 13 5.5C13 6.32843 13.6716 7 14.5 7C15.3284 7 16 6.32843 16 5.5ZM16 12C16 11.1716 15.3284 10.5 14.5 10.5C13.6716 10.5 13 11.1716 13 12C13 12.8284 13.6716 13.5 14.5 13.5C15.3284 13.5 16 12.8284 16 12ZM16 18.5C16 17.6716 15.3284 17 14.5 17C13.6716 17 13 17.6716 13 18.5C13 19.3284 13.6716 20 14.5 20C15.3284 20 16 19.3284 16 18.5Z" fill="black"/>
</svg>
