<svg width="24" height="24" viewBox="0 0 24 24" fill="none" xmlns="http://www.w3.org/2000/svg">
<path d="M7.66309 4H16.3369C17.0265 4 17.6677 4.35567 18.0332 4.94043L21.6963 10.8008C21.8948 11.1185 22 11.4857 22 11.8604V18C22 19.1046 21.1046 20 20 20H4C2.89543 20 2 19.1046 2 18V11.8604C2.00001 11.4857 2.10522 11.1185 2.30371 10.8008L5.9668 4.94043C6.33227 4.35567 6.97351 4 7.66309 4Z" stroke="black" stroke-width="2"/>
<path d="M22 19C22 19.5523 21.5523 20 21 20H3C2.44772 20 2 19.5523 2 19V11H22V19ZM6 15C5.44772 15 5 15.4477 5 16C5 16.5523 5.44772 17 6 17C6.55228 17 7 16.5523 7 16C7 15.4477 6.55228 15 6 15ZM10 15C9.44772 15 9 15.4477 9 16C9 16.5523 9.44772 17 10 17C10.5523 17 11 16.5523 11 16C11 15.4477 10.5523 15 10 15Z" fill="black"/>
</svg>
