<svg width="16" height="16" viewBox="0 0 16 16" fill="none" xmlns="http://www.w3.org/2000/svg">
<path d="M2 3V6H5" stroke="black" stroke-width="2" stroke-linecap="round" stroke-linejoin="round"/>
<path d="M2.35025 10.02C2.81758 11.3271 3.72367 12.4317 4.91414 13.1456C6.1046 13.8596 7.50579 14.1386 8.87895 13.9353C10.2521 13.7319 11.5123 13.0587 12.4447 12.0304C13.3772 11.0021 13.9243 9.6823 13.9927 8.29586C14.0611 6.90941 13.6467 5.54213 12.8201 4.42697C11.9935 3.31181 10.8057 2.51778 9.45929 2.18017C8.11284 1.84255 6.69098 1.98224 5.43598 2.57544C4.18098 3.16864 3.17049 4.17864 2.57669 5.43335" stroke="black" stroke-width="2" stroke-linecap="round"/>
<path d="M7.9996 5L7.97421 8L9.9996 9" stroke="black" stroke-width="2" stroke-linecap="round" stroke-linejoin="round"/>
</svg>
