<svg width="24" height="24" viewBox="0 0 24 24" fill="none" xmlns="http://www.w3.org/2000/svg">
<path d="M3.05078 3V8H8.05078" stroke="black" stroke-width="2" stroke-linecap="round" stroke-linejoin="round"/>
<path d="M3.05 13C3.26234 15.0059 4.14239 16.8824 5.54893 18.3282C6.95547 19.7741 8.80696 20.7055 10.8063 20.9731C12.8056 21.2406 14.8368 20.8288 16.574 19.8036C18.3113 18.7784 19.6537 17.1994 20.386 15.3199C21.1183 13.4403 21.1979 11.3693 20.6122 9.43907C20.0264 7.50885 18.8092 5.83137 17.1559 4.6758C15.5025 3.52023 13.5089 2.95358 11.495 3.06677C9.481 3.17996 7.56344 3.96644 6.05 5.29999L3.05 7.99999" stroke="black" stroke-width="2" stroke-linecap="round" stroke-linejoin="round"/>
<path d="M12 7V12L16 14" stroke="black" stroke-width="2" stroke-linecap="round" stroke-linejoin="round"/>
</svg>
