<svg width="24" height="24" viewBox="0 0 24 24" fill="none" xmlns="http://www.w3.org/2000/svg">
<rect x="3" y="3" width="18" height="18" rx="2" stroke="black" stroke-width="2"/>
<path d="M9 7C10.1046 7 11 7.89543 11 9C11 10.1046 10.1046 11 9 11C7.89543 11 7 10.1046 7 9C7 7.89543 7.89543 7 9 7Z" fill="black" stroke="black" stroke-width="2" stroke-linecap="round" stroke-linejoin="round"/>
<path d="M15.0858 11.9142L6.5 20.5V21H19C19 21 19.5 21 20 20.5C20.5 20 21 19 21 19V15L17.9142 11.9142C17.1332 11.1332 15.8668 11.1332 15.0858 11.9142Z" fill="black" stroke="black" stroke-width="2"/>
</svg>
