<svg width="24" height="24" viewBox="0 0 24 24" fill="none" xmlns="http://www.w3.org/2000/svg">
<path d="M11 12.5859L8.70703 10.293C8.31651 9.90244 7.68349 9.90244 7.29297 10.293C6.90244 10.6835 6.90244 11.3165 7.29297 11.707L11.293 15.707C11.3408 15.7548 11.3935 15.7976 11.4502 15.835C11.4877 15.8597 11.5266 15.8812 11.5664 15.9004C11.6116 15.9222 11.6584 15.9412 11.707 15.9561C11.7273 15.9623 11.748 15.9668 11.7686 15.9717C11.7799 15.9744 11.7912 15.9772 11.8027 15.9795C11.8131 15.9816 11.8236 15.9826 11.834 15.9844C11.8881 15.9934 11.9433 16 12 16C12.0563 16 12.1112 15.9933 12.165 15.9844C12.1754 15.9826 12.1859 15.9816 12.1963 15.9795C12.2078 15.9772 12.2191 15.9744 12.2305 15.9717C12.251 15.9668 12.2717 15.9622 12.292 15.9561C12.3407 15.9412 12.3874 15.9222 12.4326 15.9004C12.4727 15.8811 12.5121 15.8599 12.5498 15.835C12.6065 15.7976 12.6592 15.7548 12.707 15.707L16.707 11.707C17.0976 11.3165 17.0976 10.6835 16.707 10.293C16.3165 9.90244 15.6835 9.90244 15.293 10.293L13 12.5859V4H20C21.6569 4 23 5.34315 23 7V17C23 18.6569 21.6569 20 20 20H4C2.34315 20 1 18.6569 1 17V7C1 5.34315 2.34315 4 4 4H11V12.5859Z" fill="black"/>
</svg>
