<svg width="24" height="24" viewBox="0 0 24 24" fill="none" xmlns="http://www.w3.org/2000/svg">
<path d="M19 2C20.6569 2 22 3.34315 22 5V19C22 20.6569 20.6569 22 19 22H5C3.34315 22 2 20.6569 2 19V5C2 3.34315 3.34315 2 5 2H19ZM19.707 8.29297C19.3165 7.90244 18.6835 7.90244 18.293 8.29297L14 12.5859L10.707 9.29297C10.3409 8.92685 9.76191 8.90426 9.36914 9.22461L9.29297 9.29297L6.29297 12.293C5.90244 12.6835 5.90244 13.3165 6.29297 13.707C6.68349 14.0976 7.31651 14.0976 7.70703 13.707L10 11.4141L13.293 14.707C13.6835 15.0976 14.3165 15.0976 14.707 14.707L19.707 9.70703C20.0976 9.31651 20.0976 8.68349 19.707 8.29297Z" fill="black"/>
</svg>
