<svg width="16" height="16" viewBox="0 0 16 16" fill="none" xmlns="http://www.w3.org/2000/svg">
<path d="M15 15H1V1H15V15ZM12.707 5.29297C12.3165 4.90244 11.6835 4.90244 11.293 5.29297L9 7.58594L7.70703 6.29297C7.34092 5.92685 6.76191 5.90426 6.36914 6.22461L6.29297 6.29297L4.29297 8.29297C3.90244 8.68349 3.90244 9.31651 4.29297 9.70703C4.68349 10.0976 5.31651 10.0976 5.70703 9.70703L7 8.41406L8.29297 9.70703C8.68349 10.0976 9.31651 10.0976 9.70703 9.70703L12.707 6.70703C13.0976 6.31651 13.0976 5.68349 12.707 5.29297Z" fill="black"/>
</svg>
