<svg width="24" height="24" viewBox="0 0 24 24" fill="none" xmlns="http://www.w3.org/2000/svg">
<path d="M12 1C18.0751 1 23 5.92487 23 12C23 18.0751 18.0751 23 12 23C5.92487 23 1 18.0751 1 12C1 5.92487 5.92487 1 12 1ZM10.5547 7.16797C10.2479 6.96344 9.85344 6.94426 9.52832 7.11816C9.24385 7.27041 9.0531 7.54904 9.00977 7.86328L9 8V16C9 16.3688 9.20316 16.7078 9.52832 16.8818C9.85344 17.0557 10.2479 17.0366 10.5547 16.832L16.5547 12.832C16.8329 12.6466 17 12.3344 17 12C17 11.6656 16.8329 11.3534 16.5547 11.168L10.5547 7.16797ZM14.1973 12L11 14.1309V9.86816L14.1973 12Z" fill="black"/>
</svg>
