<svg width="24" height="24" viewBox="0 0 24 24" fill="none" xmlns="http://www.w3.org/2000/svg">
<path d="M19 2C20.6569 2 22 3.34315 22 5V19C22 20.6569 20.6569 22 19 22H5C3.34315 22 2 20.6569 2 19V5C2 3.34315 3.34315 2 5 2H19ZM12.0049 7.00488C11.4527 7.00495 11.0049 7.45269 11.0049 8.00488V11H8C7.44772 11 7 11.4477 7 12C7 12.5523 7.44772 13 8 13H11.0049V16.0049C11.0049 16.5571 11.4527 17.0048 12.0049 17.0049C12.5572 17.0049 13.0049 16.5572 13.0049 16.0049V13H16C16.5523 13 17 12.5523 17 12C17 11.4477 16.5523 11 16 11H13.0049V8.00488C13.0048 7.45265 12.5571 7.00488 12.0049 7.00488Z" fill="black"/>
</svg>
