<svg width="24" height="24" viewBox="0 0 24 24" fill="none" xmlns="http://www.w3.org/2000/svg">
<path d="M6 8C6 8.55228 6.44772 9 7 9H15C15.5523 9 16 8.55228 16 8C16 7.44772 15.5523 7 15 7H8V2H15.7578C16.5533 2.00012 17.3164 2.3164 17.8789 2.87891L21.1211 6.12109C21.6836 6.6836 21.9999 7.4467 22 8.24219V19C22 20.6569 20.6569 22 19 22H18V13C18 12.4477 17.5523 12 17 12H7C6.44772 12 6 12.4477 6 13V22H5C3.34315 22 2 20.6569 2 19V5C2 3.34315 3.34315 2 5 2H6V8ZM16 14V22H8V14H16Z" fill="black"/>
</svg>
