<svg width="24" height="24" viewBox="0 0 24 24" fill="none" xmlns="http://www.w3.org/2000/svg">
<path d="M20 1C21.6569 1 23 2.34315 23 4V8C23 9.65685 21.6569 11 20 11H4C2.34315 11 1 9.65685 1 8V4C1 2.34315 2.34315 1 4 1H20ZM6 5C5.44772 5 5 5.44772 5 6C5 6.55228 5.44772 7 6 7C6.55228 7 7 6.55228 7 6C7 5.44772 6.55228 5 6 5Z" fill="black"/>
<path d="M20 13C21.6569 13 23 14.3431 23 16V20C23 21.6569 21.6569 23 20 23H4C2.34315 23 1 21.6569 1 20V16C1 14.3431 2.34315 13 4 13H20ZM6 17C5.44772 17 5 17.4477 5 18C5 18.5523 5.44772 19 6 19C6.55228 19 7 18.5523 7 18C7 17.4477 6.55228 17 6 17Z" fill="black"/>
</svg>
