<svg width="16" height="16" viewBox="0 0 16 16" fill="none" xmlns="http://www.w3.org/2000/svg">
<path fill-rule="evenodd" clip-rule="evenodd" d="M8.14649 1.33301C8.50011 1.33301 8.8398 1.47358 9.08984 1.72363C9.33988 1.97368 9.48047 2.31338 9.48047 2.66699V2.78711C9.48079 3.02067 9.54234 3.24991 9.65918 3.45215C9.77619 3.65457 9.944 3.82352 10.1465 3.94043L10.4336 4.10645C10.6363 4.22346 10.8665 4.28516 11.1006 4.28516C11.3345 4.28507 11.5641 4.22338 11.7666 4.10645L11.8672 4.05371C12.173 3.87738 12.5359 3.82888 12.877 3.91992C13.2181 4.01116 13.5095 4.23444 13.6865 4.54004L13.833 4.79297C14.0094 5.09883 14.0579 5.46258 13.9668 5.80371C13.8756 6.14493 13.6523 6.43625 13.3467 6.61328L13.2471 6.67285C13.0436 6.79032 12.8749 6.96036 12.7578 7.16406C12.6408 7.36764 12.5792 7.59822 12.5801 7.83301V8.16699C12.5792 8.40178 12.6408 8.63236 12.7578 8.83594C12.8749 9.03964 13.0436 9.20968 13.2471 9.32715L13.3467 9.37988C13.6523 9.55692 13.8756 9.84823 13.9668 10.1895C14.058 10.5306 14.0095 10.8943 13.833 11.2002L13.6865 11.46C13.5095 11.7656 13.2181 11.9888 12.877 12.0801C12.5359 12.1711 12.173 12.1226 11.8672 11.9463L11.7666 11.8936C11.5641 11.7766 11.3345 11.7149 11.1006 11.7148C10.8665 11.7148 10.6363 11.7765 10.4336 11.8936L10.1465 12.0596C9.944 12.1765 9.77619 12.3454 9.65918 12.5479C9.54234 12.7501 9.48079 12.9793 9.48047 13.2129V13.333C9.48047 13.6866 9.33988 14.0263 9.08984 14.2764C8.8398 14.5264 8.50011 14.667 8.14649 14.667H7.85352C7.49989 14.667 7.16021 14.5264 6.91016 14.2764C6.66018 14.0263 6.52051 13.6866 6.52051 13.333V13.2129C6.52019 12.9793 6.45769 12.7501 6.34082 12.5479C6.22381 12.3454 6.05601 12.1765 5.85352 12.0596L5.56641 11.8936C5.36384 11.7766 5.13427 11.7149 4.90039 11.7148C4.66634 11.7148 4.43609 11.7765 4.2334 11.8936L4.13379 11.9463C3.82793 12.1227 3.46417 12.1712 3.12305 12.0801C2.78182 11.9888 2.49051 11.7656 2.31348 11.46L2.16699 11.207C1.99057 10.9012 1.9421 10.5374 2.0332 10.1963C2.12444 9.85511 2.34773 9.56376 2.65332 9.38672L2.75391 9.32715C2.95731 9.20968 3.12612 9.03959 3.24316 8.83594C3.36001 8.63244 3.4208 8.40165 3.41992 8.16699V7.82715C3.41852 7.59457 3.35611 7.36613 3.23926 7.16504C3.12235 6.96395 2.95533 6.79602 2.75391 6.67969L2.65332 6.61328C2.34773 6.43624 2.12444 6.14489 2.0332 5.80371C1.9421 5.4626 1.99057 5.09881 2.16699 4.79297L2.31348 4.54004C2.49051 4.2344 2.78182 4.01116 3.12305 3.91992C3.46417 3.8288 3.82793 3.87728 4.13379 4.05371L4.2334 4.10645C4.43609 4.22347 4.66634 4.28516 4.90039 4.28516C5.13427 4.2851 5.36384 4.22336 5.56641 4.10645L5.85352 3.94043C6.05601 3.82352 6.22381 3.65458 6.34082 3.45215C6.45769 3.24989 6.52019 3.02071 6.52051 2.78711V2.66699C6.52051 2.31343 6.66018 1.97367 6.91016 1.72363C7.16021 1.47358 7.49989 1.33301 7.85352 1.33301H8.14649ZM8 6C6.89548 6.00005 6 6.89546 6 8C6 9.10454 6.89548 9.99995 8 10C9.10457 10 10 9.10457 10 8C10 6.89543 9.10457 6 8 6Z" fill="black"/>
</svg>
