<svg width="24" height="24" viewBox="0 0 24 24" fill="none" xmlns="http://www.w3.org/2000/svg">
<path d="M12.2204 2C12.7507 2.00011 13.2595 2.21097 13.6345 2.58594C14.0094 2.96099 14.2204 3.46967 14.2204 4V4.17969C14.2208 4.5303 14.3126 4.87513 14.488 5.17871C14.6635 5.48236 14.9167 5.73479 15.2204 5.91016L15.6501 6.16016C15.9541 6.33564 16.2991 6.42773 16.6501 6.42773C17.0012 6.42771 17.3461 6.33567 17.6501 6.16016L17.7995 6.08008C18.2585 5.81534 18.8043 5.74302 19.3161 5.87988C19.8278 6.01672 20.2644 6.35128 20.53 6.80957L20.7497 7.19043C21.0144 7.64932 21.0868 8.1943 20.9499 8.70605C20.8131 9.21781 20.4786 9.65436 20.0202 9.91992L19.8698 10.0098C19.5648 10.1859 19.312 10.4398 19.1364 10.7451C18.9608 11.0507 18.8684 11.3976 18.8698 11.75V12.25C18.8684 12.6024 18.9608 12.9493 19.1364 13.2549C19.312 13.5602 19.5648 13.8141 19.8698 13.9902L20.0202 14.0703C20.4785 14.3359 20.8131 14.7725 20.9499 15.2842C21.0867 15.7959 21.0144 16.3409 20.7497 16.7998L20.53 17.1904C20.2644 17.6487 19.8278 17.9833 19.3161 18.1201C18.8043 18.257 18.2585 18.1847 17.7995 17.9199L17.6501 17.8398C17.3461 17.6643 17.0012 17.5723 16.6501 17.5723C16.2991 17.5723 15.9541 17.6644 15.6501 17.8398L15.2204 18.0898C14.9167 18.2652 14.6635 18.5176 14.488 18.8213C14.3126 19.1249 14.2208 19.4697 14.2204 19.8203V20C14.2204 20.5303 14.0094 21.039 13.6345 21.4141C13.2595 21.789 12.7507 21.9999 12.2204 22H11.78C11.2496 22 10.741 21.7891 10.3659 21.4141C9.99086 21.039 9.78 20.5304 9.78 20V19.8203C9.77964 19.4696 9.68694 19.1249 9.51144 18.8213C9.33593 18.5176 9.08374 18.2652 8.78 18.0898L8.35031 17.8398C8.04636 17.6644 7.70128 17.5723 7.35031 17.5723C6.99935 17.5723 6.65428 17.6644 6.35031 17.8398L6.19992 17.9199C5.7411 18.1846 5.19601 18.2568 4.6843 18.1201C4.17265 17.9833 3.73601 17.6486 3.47043 17.1904L3.24973 16.8096C2.9852 16.3507 2.91369 15.8056 3.05051 15.2939C3.18739 14.7822 3.52176 14.3456 3.98019 14.0801L4.12961 13.9902C4.43471 13.8141 4.68838 13.5603 4.86398 13.2549C5.03959 12.9493 5.13101 12.6024 5.12961 12.25V11.7402C5.1275 11.3913 5.03446 11.0488 4.8591 10.7471C4.68367 10.4453 4.43188 10.194 4.12961 10.0195L3.98019 9.91992C3.52176 9.65439 3.18739 9.21785 3.05051 8.70605C2.91369 8.19438 2.9852 7.64927 3.24973 7.19043L3.47043 6.80957C3.73601 6.35137 4.17265 6.0167 4.6843 5.87988C5.19601 5.74316 5.7411 5.81542 6.19992 6.08008L6.35031 6.16016C6.65428 6.33558 6.99935 6.42773 7.35031 6.42773C7.70128 6.42768 8.04636 6.33564 8.35031 6.16016L8.78 5.91016C9.08374 5.73479 9.33593 5.48236 9.51144 5.17871C9.68694 4.87508 9.77964 4.53039 9.78 4.17969V4C9.78 3.46957 9.99086 2.96101 10.3659 2.58594C10.741 2.21087 11.2496 2 11.78 2H12.2204ZM11.9997 9C10.343 9.00015 8.99973 10.3432 8.99973 12C8.99973 13.6568 10.343 14.9999 11.9997 15C13.6566 15 14.9997 13.6569 14.9997 12C14.9997 10.3431 13.6566 9 11.9997 9Z" fill="black"/>
</svg>
