<svg width="24" height="24" viewBox="0 0 24 24" fill="none" xmlns="http://www.w3.org/2000/svg">
<path d="M11.2578 1C12.0533 1.00012 12.8164 1.3164 13.3789 1.87891L22.3789 10.8789C23.5502 12.0504 23.5502 13.9496 22.3789 15.1211L15.1211 22.3789C14.5423 22.9576 13.7859 23.249 13.0273 23.2559C14.2544 21.8499 15 20.0127 15 18C15 13.5817 11.4183 10 7 10C4.74068 10 2.70085 10.9373 1.24609 12.4434C1.08627 12.0722 1.00006 11.6697 1 11.2578V2C1 1.44772 1.44772 1 2 1H11.2578ZM7.5 6C6.67157 6 6 6.67157 6 7.5C6 8.32843 6.67157 9 7.5 9C8.32843 9 9 8.32843 9 7.5C9 6.67157 8.32843 6 7.5 6Z" fill="black"/>
<path d="M7 12C10.3137 12 13 14.6863 13 18C13 21.3137 10.3137 24 7 24C3.68629 24 1 21.3137 1 18C1 14.6863 3.68629 12 7 12ZM10.707 15.293C10.3165 14.9024 9.68349 14.9024 9.29297 15.293L6 18.5859L4.70703 17.293C4.31651 16.9024 3.68349 16.9024 3.29297 17.293C2.90244 17.6835 2.90244 18.3165 3.29297 18.707L5.29297 20.707C5.68349 21.0976 6.31651 21.0976 6.70703 20.707L10.707 16.707C11.0976 16.3165 11.0976 15.6835 10.707 15.293Z" fill="black"/>
</svg>
