<svg width="24" height="24" viewBox="0 0 24 24" fill="none" xmlns="http://www.w3.org/2000/svg">
<path d="M11.2578 1C12.0533 1.00012 12.8164 1.3164 13.3789 1.87891L22.3789 10.8789C23.5502 12.0504 23.5502 13.9496 22.3789 15.1211L15.1211 22.3789C14.5423 22.9576 13.7859 23.249 13.0273 23.2559C14.2544 21.8499 15 20.0127 15 18C15 13.5817 11.4183 10 7 10C4.74068 10 2.70085 10.9373 1.24609 12.4434C1.08627 12.0722 1.00006 11.6697 1 11.2578V2C1 1.44772 1.44772 1 2 1H11.2578ZM7.5 6C6.67157 6 6 6.67157 6 7.5C6 8.32843 6.67157 9 7.5 9C8.32843 9 9 8.32843 9 7.5C9 6.67157 8.32843 6 7.5 6Z" fill="black"/>
<path d="M7 12C10.3137 12 13 14.6863 13 18C13 21.3137 10.3137 24 7 24C3.68629 24 1 21.3137 1 18C1 14.6863 3.68629 12 7 12ZM7 14C6.44772 14 6 14.4477 6 15V17H4C3.44772 17 3 17.4477 3 18C3 18.5523 3.44772 19 4 19H6V21C6 21.5523 6.44772 22 7 22C7.55228 22 8 21.5523 8 21V19H10C10.5523 19 11 18.5523 11 18C11 17.4477 10.5523 17 10 17H8V15C8 14.4477 7.55228 14 7 14Z" fill="black"/>
</svg>
