<svg width="24" height="24" viewBox="0 0 24 24" fill="none" xmlns="http://www.w3.org/2000/svg">
<path d="M11.2578 1C12.0533 1.00012 12.8164 1.3164 13.3789 1.87891L22.3789 10.8789C23.5502 12.0504 23.5502 13.9496 22.3789 15.1211L15.1211 22.3789C13.9496 23.5502 12.0504 23.5502 10.8789 22.3789L1.87891 13.3789C1.3164 12.8164 1.00012 12.0533 1 11.2578V2C1 1.44772 1.44772 1 2 1H11.2578ZM7.5 6C6.67157 6 6 6.67157 6 7.5C6 8.32843 6.67157 9 7.5 9C8.32843 9 9 8.32843 9 7.5C9 6.67157 8.32843 6 7.5 6Z" fill="black"/>
</svg>
