<svg width="16" height="16" viewBox="0 0 16 16" fill="none" xmlns="http://www.w3.org/2000/svg">
<path d="M16 8.65918L9.00293 15.6553C9.63013 14.7618 10 13.6745 10 12.5C10 9.46243 7.53757 7 4.5 7C3.17045 7 1.95092 7.47157 1 8.25684V1H8.5L16 8.65918ZM5 4C4.44772 4 4 4.44772 4 5C4 5.55228 4.44772 6 5 6C5.55228 6 6 5.55228 6 5C6 4.44772 5.55228 4 5 4Z" fill="black"/>
<path d="M4.5 9C6.433 9 8 10.567 8 12.5C8 14.433 6.433 16 4.5 16C2.567 16 1 14.433 1 12.5C1 10.567 2.567 9 4.5 9ZM7.35352 10.6465C7.15825 10.4512 6.84175 10.4512 6.64648 10.6465L4 13.293L2.85352 12.1465C2.65825 11.9512 2.34175 11.9512 2.14648 12.1465C1.95122 12.3417 1.95122 12.6583 2.14648 12.8535L3.64648 14.3535C3.84175 14.5488 4.15825 14.5488 4.35352 14.3535L7.35352 11.3535C7.54878 11.1583 7.54878 10.8417 7.35352 10.6465Z" fill="black"/>
</svg>
