<svg width="16" height="16" viewBox="0 0 16 16" fill="none" xmlns="http://www.w3.org/2000/svg">
<path d="M16 8.65918L9.00293 15.6553C9.63013 14.7618 10 13.6745 10 12.5C10 9.46243 7.53757 7 4.5 7C3.17045 7 1.95092 7.47157 1 8.25684V1H8.5L16 8.65918ZM5 4C4.44772 4 4 4.44772 4 5C4 5.55228 4.44772 6 5 6C5.55228 6 6 5.55228 6 5C6 4.44772 5.55228 4 5 4Z" fill="black"/>
<path d="M4.5 9C6.433 9 8 10.567 8 12.5C8 14.433 6.433 16 4.5 16C2.567 16 1 14.433 1 12.5C1 10.567 2.567 9 4.5 9ZM4 12H2V13H4V15H5V13H7V12H5V10H4V12Z" fill="black"/>
</svg>
