<svg width="24" height="24" viewBox="0 0 24 24" fill="none" xmlns="http://www.w3.org/2000/svg">
<g clip-path="url(#clip0_380_68649)">
<path d="M15.9904 5L22.2303 11.2322C23.2076 12.2084 23.2081 13.7921 22.2313 14.7688L18.0002 19" stroke="black" stroke-width="2" stroke-linecap="round"/>
<path d="M8.90723 4C9.17098 4.00008 9.4241 4.10428 9.61133 4.29004L15.9082 10.5439C17.283 11.9094 17.2871 14.1328 15.917 15.5029L12.5469 18.8721C11.1833 20.2353 8.97451 20.2386 7.60645 18.8799L1.29492 12.6123C1.10617 12.4247 1.0001 12.1695 1 11.9033V5C1 4.44772 1.44772 4 2 4H8.90723ZM6 8C5.44772 8 5 8.44772 5 9C5 9.55228 5.44772 10 6 10C6.55228 10 7 9.55228 7 9C7 8.44772 6.55228 8 6 8Z" fill="black"/>
</g>
<defs>
<clipPath id="clip0_380_68649">
<rect width="24" height="24" fill="white"/>
</clipPath>
</defs>
</svg>
