<svg width="16" height="16" viewBox="0 0 16 16" fill="none" xmlns="http://www.w3.org/2000/svg">
<path d="M8 1C11.866 1 15 4.13401 15 8C15 11.866 11.866 15 8 15C4.13401 15 1 11.866 1 8C1 4.13401 4.13401 1 8 1ZM10.707 5.29297C10.3165 4.90244 9.68349 4.90244 9.29297 5.29297L8 6.58594L6.70703 5.29297C6.31651 4.90244 5.68349 4.90244 5.29297 5.29297C4.90244 5.68349 4.90244 6.31651 5.29297 6.70703L6.58594 8L5.29297 9.29297C4.90244 9.68349 4.90244 10.3165 5.29297 10.707C5.68349 11.0976 6.31651 11.0976 6.70703 10.707L8 9.41406L9.29297 10.707C9.68349 11.0976 10.3165 11.0976 10.707 10.707C11.0976 10.3165 11.0976 9.68349 10.707 9.29297L9.41406 8L10.707 6.70703C11.0976 6.31651 11.0976 5.68349 10.707 5.29297Z" fill="black"/>
</svg>
