<svg width="16" height="16" viewBox="0 0 16 16" fill="none" xmlns="http://www.w3.org/2000/svg" aria-hidden="true">
<path d="M5.5 4.5C6.05228 4.5 6.5 4.94772 6.5 5.5C6.5 6.05228 6.05228 6.5 5.5 6.5C4.94772 6.5 4.5 6.05228 4.5 5.5C4.5 4.94772 4.94772 4.5 5.5 4.5Z" stroke="currentColor" stroke-linecap="round" stroke-linejoin="round"/>
<path d="M3.5 14.5L9.58579 8.41421C10.3668 7.63317 11.6332 7.63316 12.4142 8.41421L14.5 10.5" stroke="currentColor"/>
<path d="M13.5 0.5V4.5" stroke="currentColor" stroke-linecap="round" stroke-linejoin="round"/>
<path d="M14.5 7V12.5C14.5 13.6046 13.6046 14.5 12.5 14.5H3.5C2.39543 14.5 1.5 13.6046 1.5 12.5V3.5C1.5 2.39543 2.39543 1.5 3.5 1.5H8" stroke="currentColor" stroke-linecap="round"/>
<path d="M11.5 2.5H15.5" stroke="currentColor" stroke-linecap="round" stroke-linejoin="round"/>
</svg>
