<svg width="12" height="12" viewBox="0 0 12 12" fill="none" xmlns="http://www.w3.org/2000/svg">
<path d="M10 8C10 7.28736 9.99892 6.79022 9.95996 6.40723C9.92186 6.03295 9.85146 5.8233 9.74707 5.66699C9.63763 5.50321 9.49679 5.36237 9.33301 5.25293C9.1767 5.14854 8.96705 5.07814 8.59277 5.04004C8.20978 5.00108 7.71264 5 7 5H5C4.28736 5 3.79022 5.00108 3.40723 5.04004C3.03295 5.07814 2.8233 5.14854 2.66699 5.25293C2.50321 5.36237 2.36237 5.50321 2.25293 5.66699C2.14854 5.8233 2.07814 6.03295 2.04004 6.40723C2.00108 6.79022 2 7.28736 2 8C2 8.71264 2.00108 9.20978 2.04004 9.59277C2.07814 9.96705 2.14854 10.1767 2.25293 10.333C2.36237 10.4968 2.50321 10.6376 2.66699 10.7471C2.8233 10.8515 3.03295 10.9219 3.40723 10.96C3.79022 10.9989 4.28736 11 5 11H7C7.71264 11 8.20978 10.9989 8.59277 10.96C8.96705 10.9219 9.1767 10.8515 9.33301 10.7471C9.49679 10.6376 9.63763 10.4968 9.74707 10.333C9.85146 10.1767 9.92186 9.96705 9.95996 9.59277C9.99892 9.20978 10 8.71264 10 8ZM11 8C11 8.69167 11.0004 9.24806 10.9551 9.69336C10.9089 10.1469 10.8115 10.5407 10.5791 10.8887C10.3967 11.1616 10.1616 11.3967 9.88867 11.5791C9.54069 11.8115 9.1469 11.9089 8.69336 11.9551C8.24806 12.0004 7.69167 12 7 12H5C4.30833 12 3.75194 12.0004 3.30664 11.9551C2.8531 11.9089 2.45931 11.8115 2.11133 11.5791C1.83835 11.3967 1.60329 11.1616 1.4209 10.8887C1.1885 10.5407 1.09106 10.1469 1.04492 9.69336C0.999648 9.24806 1 8.69167 1 8C1 7.30833 0.999648 6.75194 1.04492 6.30664C1.09106 5.8531 1.1885 5.45931 1.4209 5.11133C1.60329 4.83835 1.83835 4.60329 2.11133 4.4209C2.45931 4.1885 2.8531 4.09106 3.30664 4.04492C3.75194 3.99965 4.30833 4 5 4H7C7.69167 4 8.24806 3.99965 8.69336 4.04492C9.1469 4.09106 9.54069 4.1885 9.88867 4.4209C10.1616 4.60329 10.3967 4.83835 10.5791 5.11133C10.8115 5.45931 10.9089 5.8531 10.9551 6.30664C11.0004 6.75194 11 7.30833 11 8Z" fill="#F3F3F4"/>
<path d="M7.99999 3.00002C7.99999 2.5114 7.99709 2.33978 7.97069 2.20705C7.85223 1.61235 7.38766 1.14778 6.79296 1.02932C6.66024 1.00292 6.48861 1.00002 5.99999 1.00002C5.51137 1.00002 5.33974 1.00292 5.20702 1.02932C4.61232 1.14778 4.14775 1.61235 4.02929 2.20705C4.00289 2.33978 3.99999 2.5114 3.99999 3.00002V4.50002H2.99999V3.00002C2.99999 2.55959 2.99747 2.26629 3.04784 2.01272C3.24511 1.02099 4.02096 0.245139 5.01269 0.0478723C5.26626 -0.0024959 5.55956 2.07733e-05 5.99999 2.07733e-05C6.44042 2.07733e-05 6.73372 -0.00249592 6.98729 0.0478723C7.97902 0.245139 8.75487 1.02099 8.95214 2.01272C9.00251 2.26629 8.99999 2.55959 8.99999 3.00002V4.50002H7.99999V3.00002Z" fill="#F3F3F4"/>
<path d="M7 8C7 7.44772 6.55228 7 6 7C5.44772 7 5 7.44772 5 8C5 8.55228 5.44772 9 6 9C6.55228 9 7 8.55228 7 8ZM8 8C8 9.10457 7.10457 10 6 10C4.89543 10 4 9.10457 4 8C4 6.89543 4.89543 6 6 6C7.10457 6 8 6.89543 8 8Z" fill="#F3F3F4"/>
</svg>
