<svg width="12" height="12" viewBox="0 0 12 12" fill="none" xmlns="http://www.w3.org/2000/svg">
<g clip-path="url(#clip0_2138_4246)">
<path d="M8.14661 5.1466C8.34187 4.95134 8.65837 4.95134 8.85364 5.1466C9.0489 5.34186 9.0489 5.65837 8.85364 5.85363L3.14661 11.5607C2.86534 11.8419 2.48383 12.0001 2.08606 12.0001H0.500122C0.22398 12.0001 0.00012207 11.7763 0.00012207 11.5001V9.91418C0.00016197 9.51641 0.158306 9.1349 0.439575 8.85363L6.14661 3.1466C6.34187 2.95134 6.65838 2.95134 6.85364 3.1466C7.0489 3.34186 7.0489 3.65837 6.85364 3.85363L1.14661 9.56066C1.05287 9.65439 1.00016 9.78162 1.00012 9.91418V11.0001H2.08606C2.21861 11.0001 2.34584 10.9474 2.43958 10.8536L8.14661 5.1466ZM8.64661 0.646598C9.39415 -0.100949 10.6061 -0.100949 11.3536 0.646598C12.1012 1.39414 12.1012 2.60608 11.3536 3.35363L10.3536 4.35363C10.1584 4.54889 9.84187 4.54889 9.64661 4.35363C9.45134 4.15837 9.45134 3.84186 9.64661 3.6466L10.6466 2.6466C11.0036 2.28958 11.0036 1.71065 10.6466 1.35363C10.2896 0.996606 9.71066 0.996606 9.35364 1.35363L8.35364 2.35363C8.15838 2.54889 7.84187 2.54889 7.64661 2.35363C7.45134 2.15837 7.45134 1.84186 7.64661 1.6466L8.64661 0.646598Z" fill="#F3F3F4"/>
<path d="M7.49997 6C7.77611 6 7.99997 6.22386 7.99997 6.5C7.99997 6.77614 7.77611 7 7.49997 7H3.49997C3.22383 7 2.99997 6.77614 2.99997 6.5C2.99997 6.22386 3.22383 6 3.49997 6H7.49997Z" fill="#F3F3F4"/>
<path d="M6.6466 0.646447C6.84186 0.451184 7.15837 0.451184 7.35363 0.646447L11.3536 4.64645C11.5489 4.84171 11.5489 5.15822 11.3536 5.35348C11.1584 5.54874 10.8419 5.54874 10.6466 5.35348L6.6466 1.35348C6.45134 1.15822 6.45134 0.841709 6.6466 0.646447Z" fill="#F3F3F4"/>
</g>
<defs>
<clipPath id="clip0_2138_4246">
<rect width="12" height="12" fill="white"/>
</clipPath>
</defs>
</svg>
